<svg xmlns="http://www.w3.org/2000/svg" width="50" height="50" fill="#1096e1" xmlns:v="https://vecta.io/nano"><path d="M25.001 23.333c2.308 0 4.563-.684 6.482-1.966A11.67 11.67 0 0 0 36.444 9.39c-.45-2.263-1.561-4.342-3.193-5.974S29.54.674 27.277.224a11.67 11.67 0 0 0-6.741.664c-2.132.883-3.954 2.378-5.236 4.297s-1.966 4.174-1.966 6.482a11.67 11.67 0 0 0 3.417 8.25c2.188 2.188 5.155 3.417 8.25 3.417zm0-20a8.34 8.34 0 0 1 4.63 1.404 8.32 8.32 0 0 1 3.069 3.74c.63 1.523.796 3.198.474 4.815s-1.115 3.101-2.281 4.267a8.33 8.33 0 0 1-9.082 1.807 8.34 8.34 0 0 1-3.74-3.069 8.33 8.33 0 0 1-1.404-4.63c0-2.21.878-4.33 2.441-5.893s3.682-2.441 5.893-2.441zm20.783 32.283a28.6 28.6 0 0 0-41.55 0 3.34 3.34 0 0 0-.9 2.283v8.767c0 .884.351 1.732.976 2.357s1.473.976 2.357.976h36.667c.884 0 1.732-.351 2.357-.976s.976-1.473.976-2.357v-8.767a3.33 3.33 0 0 0-.883-2.283zm-2.45 11.05H6.667v-8.783c2.362-2.487 5.205-4.468 8.357-5.821a25.29 25.29 0 0 1 19.952 0c3.152 1.353 5.995 3.334 8.357 5.821v8.783z"/></svg>