<svg width="255" height="32" viewBox="0 0 255 32" fill="none" xmlns="http://www.w3.org/2000/svg">
<path d="M189.231 25.6003V28.394V31.1891H191.772H194.312V28.394V25.6003H191.772H189.231Z" fill="white"/>
<path d="M189.231 10.1067V12.7732V15.4412H191.772H194.312V12.7732V10.1067H191.772H189.231Z" fill="white"/>
<path d="M231.142 0.963013V3.50241V6.04337H235.587H240.033V18.6162V31.1891H242.826H245.62V18.6162V6.04337H250.065H254.509V3.50241V0.963013H242.826H231.142Z" fill="white"/>
<path d="M210.949 0.963013V16.0753V31.1891H213.743H216.537V16.0753V0.963013H213.743H210.949Z" fill="white"/>
<path d="M144.656 0.963013V16.0753V31.1891H147.614H150.572L150.44 18.5976C150.368 11.6724 150.387 6.10049 150.482 6.21539C150.577 6.33029 151.479 8.25277 152.488 10.488C153.497 12.7232 156.256 18.2664 158.618 22.8067L162.912 31.062L167.754 31.1301L172.596 31.2V16.0815V0.963013H169.797H166.997L167.066 13.5235C167.103 20.4317 167.059 26.0035 166.97 25.9057C166.879 25.8079 165.789 23.613 164.55 21.0285C163.31 18.4441 160.529 12.8722 158.37 8.6463L154.445 0.963013H149.55H144.656Z" fill="white"/>
<path d="M121.923 0.963013V16.0753V31.1891H124.843H127.764V16.0753V0.963013H124.843H121.923Z" fill="white"/>
<path d="M40.8965 0.963013V16.0753V31.1891H43.6855H46.4729L46.5427 26.1723L46.6109 21.1556H51.5641C56.9713 21.1556 57.5168 21.272 58.5264 22.6346C59.0003 23.2742 59.0664 23.7714 59.1435 27.27L59.2303 31.1891H62.1278H65.0268L65.0252 27.1877C65.0237 23.0043 64.8051 21.6396 63.9431 20.4269C63.3504 19.5931 61.7005 18.7626 60.5821 18.7356C59.9539 18.7206 60.1009 18.612 61.4208 18.1216C64.4403 17.0001 65.0717 15.8363 65.2299 11.1097C65.4056 5.85839 64.5266 3.39629 62.0193 2.12573C60.0726 1.1393 58.1641 0.966639 49.2154 0.964569L40.8965 0.963013ZM46.4837 6.04337H51.7547C56.2699 6.04373 57.151 6.10788 57.8986 6.48831C59.006 7.05192 59.3941 8.10687 59.4178 10.6151C59.4508 14.1207 58.7319 15.4772 56.601 15.9342C55.2397 16.2264 46.9299 16.3091 46.6543 16.0335C46.5612 15.9405 46.4838 13.654 46.4838 10.9532L46.4837 6.04337Z" fill="white"/>
<path d="M0.382812 0.963013V16.0954V31.2263L9.84425 31.1285C17.9049 31.0442 19.5023 30.9653 20.6281 30.5952C22.2288 30.0689 23.3536 29.1643 24.0108 27.8759C25.123 25.6958 25.2616 20.8237 24.2744 18.6161C23.6869 17.3024 22.8462 16.5461 21.3319 15.9713L20.1118 15.5078L21.025 15.2054C23.3677 14.4322 24.446 11.8686 24.1783 7.70358C23.9112 3.54984 22.4723 1.81636 18.7941 1.21405C17.958 1.07725 13.4738 0.965378 8.82881 0.964478L0.382812 0.963013ZM6.22587 5.78912L10.9884 5.79068C13.6077 5.79128 16.1791 5.91041 16.7027 6.05591C17.9731 6.40871 18.4179 7.30753 18.4174 9.52228C18.4168 11.9443 17.8871 12.9347 16.3849 13.3252C15.7389 13.4929 13.2825 13.6295 10.7341 13.6415L6.22587 13.6625V9.7247V5.78912ZM6.22587 17.9821L11.2426 18.0002C17.1293 18.0242 18.0771 18.2131 18.7507 19.5086C19.1163 20.212 19.191 20.8255 19.1135 22.5022C18.9906 25.1574 18.5292 25.7379 16.2485 26.1113V26.1128C15.4161 26.249 12.8198 26.3616 10.4799 26.3625L6.22587 26.364V22.1727V17.9821Z" fill="white"/>
<path d="M88.903 0.950684L83.9762 15.7528C81.2666 23.8935 78.9975 30.6967 78.9331 30.8713C78.8435 31.114 79.534 31.1891 81.8771 31.1891H84.9405L85.8521 28.3319C89.7295 16.1915 93.22 5.81535 93.371 5.97675C93.4705 6.08325 95.3791 11.7709 97.6126 18.6162L101.673 31.062L104.623 31.1334C106.896 31.1886 107.567 31.1304 107.553 30.8793C107.543 30.7002 105.287 23.9239 102.538 15.8213L97.5382 1.09039L93.2206 1.02054L88.903 0.950684Z" fill="white"/>
</svg>
