<svg xmlns="http://www.w3.org/2000/svg" width="50" height="50" fill="none" xmlns:v="https://vecta.io/nano"><path d="M25 0C11.15 0 0 11.15 0 25s11.15 25 25 25 25-11.15 25-25S38.85 0 25 0zm5.833 9.027c.271-.008.517.283.356.579l-6.342 11.625a.39.39 0 0 0 .008.384.39.39 0 0 0 .334.191h10.958a.39.39 0 0 1 .267.673L17.206 40.406c-.344.321-.854-.131-.579-.512l9.092-12.544a.39.39 0 0 0 .03-.404.39.39 0 0 0-.345-.213H13.806a.39.39 0 0 1-.36-.242.39.39 0 0 1 .087-.425L30.575 9.144a.38.38 0 0 1 .26-.117h-.002z" fill="#1096e1"/></svg>