<?xml version="1.0" encoding="UTF-8" standalone="no"?>
<!-- Created with Inkscape (http://www.inkscape.org/) -->

<svg
   width="50"
   height="50"
   viewBox="0 0 13.229166 13.229167"
   version="1.1"
   id="svg5"
   sodipodi:docname="Chakra Icon.svg"
   inkscape:version="1.1.2 (b8e25be833, 2022-02-05)"
   xmlns:inkscape="http://www.inkscape.org/namespaces/inkscape"
   xmlns:sodipodi="http://sodipodi.sourceforge.net/DTD/sodipodi-0.dtd"
   xmlns="http://www.w3.org/2000/svg"
   xmlns:svg="http://www.w3.org/2000/svg">
  <sodipodi:namedview
     id="namedview7"
     pagecolor="#505050"
     bordercolor="#ffffff"
     borderopacity="1"
     inkscape:pageshadow="0"
     inkscape:pageopacity="0"
     inkscape:pagecheckerboard="1"
     inkscape:document-units="px"
     showgrid="false"
     units="px"
     width="50px"
     inkscape:zoom="8.1437115"
     inkscape:cx="30.207357"
     inkscape:cy="25.1114"
     inkscape:window-width="1920"
     inkscape:window-height="1001"
     inkscape:window-x="-9"
     inkscape:window-y="-9"
     inkscape:window-maximized="1"
     inkscape:current-layer="layer1" />
  <defs
     id="defs2">
    <clipPath
       id="clip0_82_23">
      <rect
         width="26"
         height="30"
         fill="white"
         id="rect830" />
    </clipPath>
  </defs>
  <g
     inkscape:label="Layer 1"
     inkscape:groupmode="layer"
     id="layer1">
    <g
       style="fill:none;stroke-width:1.2"
       id="g4429"
       transform="matrix(0.22048611,0,0,0.22048611,0,0.44097222)">
      <path
         d="M 30,-2 C 13.38,-2 0,11.38 0,28 0,44.62 13.38,58 30,58 46.62,58 60,44.62 60,28 60,11.38 46.62,-2 30,-2 Z m 7,10.8325 c 0.325,-0.01 0.62,0.34 0.4275,0.695 l -7.61,13.95 c -0.0385,0.0711 -0.0579,0.151 -0.0562,0.2319 0.0016,0.0808 0.0241,0.1599 0.0655,0.2294 0.0413,0.0695 0.0999,0.1272 0.1701,0.1672 0.0703,0.0401 0.1497,0.0613 0.2306,0.0615 h 13.15 c 0.425,0 0.63,0.5175 0.32,0.8075 l -23.05,21.5125 c -0.4125,0.385 -1.025,-0.1575 -0.695,-0.615 L 30.8625,30.82 c 0.05,-0.0697 0.0799,-0.1518 0.0863,-0.2373 0.0065,-0.0856 -0.0107,-0.1712 -0.0497,-0.2476 -0.039,-0.0765 -0.0982,-0.1407 -0.1713,-0.1857 -0.073,-0.0449 -0.157,-0.069 -0.2428,-0.0694 H 16.5675 c -0.0926,-2e-4 -0.183,-0.0279 -0.2599,-0.0796 C 16.2308,29.9487 16.1711,29.8753 16.136,29.7896 16.1009,29.7039 16.0921,29.6097 16.1106,29.519 16.1291,29.4283 16.1741,29.3451 16.24,29.28 L 36.69,8.9725 c 0.082,-0.08558 0.1941,-0.13581 0.3125,-0.14 z"
         fill="#00d254"
         id="path4420"
         style="stroke-width:1.44" />
    </g>
  </g>
</svg>
