<svg xmlns="http://www.w3.org/2000/svg" width="50" height="50" fill="none" xmlns:v="https://vecta.io/nano"><g clip-path="url(#A)"><path d="M21.685 11.739l-7.787-8.971c-.898-1.034-2.543-1.029-3.586.014L3.907 9.184c-1.906 1.904-2.451 4.732-1.349 7 6.587 13.611 17.586 24.604 31.215 31.197 2.27 1.1 5.101.556 7.007-1.349l6.464-6.462c1.047-1.045 1.05-2.697.005-3.593l-9.023-7.73c-.944-.809-2.41-.703-3.356.244l-3.14 3.138c-.161.168-.372.279-.602.316s-.466-.003-.671-.113a33.47 33.47 0 0 1-12.338-12.329 1.06 1.06 0 0 1-.114-.671c.037-.23.148-.441.316-.602l3.131-3.126c.948-.951 1.052-2.421.232-3.366v.002z" stroke="#1096e1" stroke-width="4" stroke-linejoin="round"/></g><defs><clipPath id="A"><path fill="#fff" d="M0 0h50v50H0z"/></clipPath></defs></svg>