<?xml version="1.0" encoding="UTF-8" standalone="no"?>
<!-- Created with Inkscape (http://www.inkscape.org/) -->

<svg
   width="50"
   height="50"
   viewBox="0 0 13.229166 13.229167"
   version="1.1"
   id="svg5"
   sodipodi:docname="Contact. 2.svg"
   inkscape:version="1.1.2 (b8e25be833, 2022-02-05)"
   xmlns:inkscape="http://www.inkscape.org/namespaces/inkscape"
   xmlns:sodipodi="http://sodipodi.sourceforge.net/DTD/sodipodi-0.dtd"
   xmlns="http://www.w3.org/2000/svg"
   xmlns:svg="http://www.w3.org/2000/svg">
  <sodipodi:namedview
     id="namedview7"
     pagecolor="#505050"
     bordercolor="#ffffff"
     borderopacity="1"
     inkscape:pageshadow="0"
     inkscape:pageopacity="0"
     inkscape:pagecheckerboard="1"
     inkscape:document-units="px"
     showgrid="false"
     units="px"
     width="50px"
     inkscape:zoom="4.0718557"
     inkscape:cx="22.102944"
     inkscape:cy="15.594855"
     inkscape:window-width="1920"
     inkscape:window-height="1001"
     inkscape:window-x="-9"
     inkscape:window-y="-9"
     inkscape:window-maximized="1"
     inkscape:current-layer="layer1" />
  <defs
     id="defs2">
    <clipPath
       id="clip0_82_23">
      <rect
         width="26"
         height="30"
         fill="white"
         id="rect830" />
    </clipPath>
  </defs>
  <g
     inkscape:label="Layer 1"
     inkscape:groupmode="layer"
     id="layer1">
    <g
       style="fill:none;stroke-width:0.622231"
       id="g5830"
       transform="matrix(0.42339051,0,0,0.42705218,-0.15846088,-0.16465763)">
      <path
         d="M 13.8314,7.36151 8.75685,1.50401 c -0.585,-0.675 -1.6575,-0.672 -2.337,0.009 l -4.173,4.1805 c -1.242,1.2435 -1.597502,3.09 -0.879,4.57049 4.29243,8.8875 11.46005,16.0652 20.34155,20.37 1.479,0.7185 3.324,0.363 4.566,-0.8805 l 4.212,-4.2195 c 0.6825,-0.6825 0.684,-1.761 0.003,-2.346 l -5.88,-5.0475 c -0.615,-0.528 -1.5705,-0.459 -2.187,0.159 l -2.046,2.049 c -0.1048,0.1098 -0.2427,0.1822 -0.3925,0.206 -0.1499,0.0239 -0.3034,-0.0021 -0.437,-0.074 -3.3444,-1.9258 -6.1186,-4.7036 -8.04,-8.0505 -0.072,-0.1339 -0.0981,-0.2876 -0.0742,-0.4378 0.0238,-0.1501 0.0963,-0.2882 0.2062,-0.3932 l 2.04,-2.04149 c 0.618,-0.621 0.6855,-1.581 0.1515,-2.1975 z"
         stroke="#00d254"
         stroke-width="1.24446"
         stroke-linecap="round"
         stroke-linejoin="round"
         id="path5821" />
    </g>
  </g>
</svg>
