<svg width="50" height="50" viewBox="0 0 50 50" fill="none" xmlns="http://www.w3.org/2000/svg">
<path d="M15.6289 0H20.9997V2.24583H17.8747V4.49167H20.9997V6.7375H15.6289V0ZM22.0726 0H27.4455V1.95417H24.3205V2.34375H27.4455V6.83541H22.0726V4.78541H25.1976V4.39374H22.0726V0ZM28.5205 0H33.8893V1.95417H30.7643V2.34375H33.8893V6.83541H28.5205V4.78541H31.6455V4.39374H28.5205V0Z" fill="#1096E1"/>
<path fill-rule="evenodd" clip-rule="evenodd" d="M24.9812 49.9991L10.5146 45.9824L6.25 9.82617H43.75L39.4876 45.9782L24.9812 49.9991ZM14.6812 26.1929L15.0792 30.6262H30.4479L29.9333 36.3762L24.9876 37.7136H24.9833L20.0458 36.3803L19.7292 32.8449H15.2771L15.8979 39.8074L24.9812 42.3283L34.0791 39.8074L35.1874 27.3824L35.2958 26.1929L36.0959 17.2157H13.8833L14.2875 21.6512H31.2376L30.8333 26.1929H14.6812Z" fill="#1096E1"/>
</svg>
