<svg xmlns="http://www.w3.org/2000/svg" width="50" height="50" fill="#1096e1" xmlns:v="https://vecta.io/nano"><path d="M15.629 0H21v2.246h-3.125v2.246H21v2.246h-5.371V0zm6.444 0h5.373v1.954h-3.125v.39h3.125v4.492h-5.373v-2.05h3.125v-.392h-3.125V0zm6.448 0h5.369v1.954h-3.125v.39h3.125v4.492h-5.369v-2.05h3.125v-.392h-3.125V0z"/><path fill-rule="evenodd" d="M24.981 49.999l-14.467-4.017L6.25 9.826h37.5l-4.262 36.152-14.506 4.021zm-10.3-23.806l.398 4.433h15.369l-.515 5.75-4.946 1.337h-.004l-4.937-1.333-.317-3.535h-4.452l.621 6.962 9.083 2.521 9.098-2.521 1.108-12.425.108-1.189.8-8.977H13.883l.404 4.436h16.95l-.404 4.542H14.681z"/></svg>