<?xml version="1.0" encoding="UTF-8" standalone="no"?>
<!-- Created with Inkscape (http://www.inkscape.org/) -->

<svg
   width="50"
   height="50"
   viewBox="0 0 13.229166 13.229167"
   version="1.1"
   id="svg5"
   sodipodi:docname="Css 3.svg"
   inkscape:version="1.1.2 (b8e25be833, 2022-02-05)"
   xmlns:inkscape="http://www.inkscape.org/namespaces/inkscape"
   xmlns:sodipodi="http://sodipodi.sourceforge.net/DTD/sodipodi-0.dtd"
   xmlns="http://www.w3.org/2000/svg"
   xmlns:svg="http://www.w3.org/2000/svg">
  <sodipodi:namedview
     id="namedview7"
     pagecolor="#505050"
     bordercolor="#ffffff"
     borderopacity="1"
     inkscape:pageshadow="0"
     inkscape:pageopacity="0"
     inkscape:pagecheckerboard="1"
     inkscape:document-units="px"
     showgrid="false"
     units="px"
     width="50px"
     inkscape:zoom="4.0718557"
     inkscape:cx="22.102944"
     inkscape:cy="54.888978"
     inkscape:window-width="1920"
     inkscape:window-height="1001"
     inkscape:window-x="-9"
     inkscape:window-y="-9"
     inkscape:window-maximized="1"
     inkscape:current-layer="layer1" />
  <defs
     id="defs2">
    <clipPath
       id="clip0_82_23">
      <rect
         width="26"
         height="30"
         fill="white"
         id="rect830" />
    </clipPath>
  </defs>
  <g
     inkscape:label="Layer 1"
     inkscape:groupmode="layer"
     id="layer1">
    <g
       style="fill:none;stroke-width:0.9"
       id="g5609"
       transform="matrix(0.29398148,0,0,0.29398148,1.6536458,0.58796291)">
      <path
         d="M 8.44125,-2 H 13.275 V 0.0212499 H 10.4625 V 2.0425 H 13.275 V 4.06375 H 8.44125 Z m 5.79935,0 h 4.8356 v 1.75875 h -2.8125 v 0.350625 h 2.8125 V 4.15187 h -4.8356 v -1.845 h 2.8125 v -0.3525 h -2.8125 z m 5.8031,0 h 4.8319 v 1.75875 h -2.8125 v 0.350625 h 2.8125 V 4.15187 h -4.8319 v -1.845 h 2.8125 v -0.3525 h -2.8125 z"
         fill="#00d254"
         id="path5597"
         style="stroke-width:0.81" />
      <path
         fill-rule="evenodd"
         clip-rule="evenodd"
         d="M 16.8581,43 3.83812,39.385 0,6.84438 H 33.75 L 29.9138,39.3812 Z m -9.26998,-21.4256 0.35813,3.99 H 21.7781 l -0.4631,5.175 -4.4512,1.2037 H 16.86 l -4.4438,-1.2 -0.2849,-3.1819 H 8.12438 l 0.55875,6.2663 8.17497,2.2688 8.1881,-2.2688 0.9975,-11.1825 0.0975,-1.0706 0.7201,-8.0794 H 6.87 l 0.36375,3.9919 H 22.4888 l -0.3638,4.0875 z"
         fill="#00d254"
         id="path5599"
         style="stroke-width:0.81" />
    </g>
  </g>
</svg>
