<svg width="267" height="41" viewBox="0 0 267 41" fill="none" xmlns="http://www.w3.org/2000/svg">
<path d="M103.106 0.739314L86.1127 25.8682C84.3452 28.5277 81.2448 30.1352 77.9998 30.1352C72.7156 30.1352 68.3416 25.7991 68.3416 20.5673C68.3416 15.2582 72.7156 10.9302 78.0369 10.9302C78.5642 10.8627 79.2718 10.789 79.7655 10.789C83.4337 10.789 87.1708 12.3256 89.7099 14.9112L94.7851 7.23016C90.8375 3.18342 84.984 0.593262 79.1286 0.593262C68.1984 0.593262 58.1863 9.60063 58.1863 20.4933C58.1863 31.3218 67.1418 40.1862 78.0754 40.1862C83.3627 40.1862 88.6503 37.9526 92.3186 34.2495H104.024L104.093 40.1865H114.252V0.739314H103.106H103.106ZM98.4567 25.5903L104.024 17.8468L104.093 25.5903H98.457H98.4567ZM133.715 40.1859H123.559V9.9503H115.662V0.804764L141.608 0.738708V9.9503H133.715V40.1859H133.715ZM175.462 0.739314L165.306 0.741737L165.236 15.4694H153.245L153.17 0.738708H143.022V40.1859H153.245V24.6131H165.306V40.1856H175.461V0.738708L175.462 0.739314ZM256.84 0.739314V19.0961L242.878 0.739314L233.637 0.803552L233.567 15.1906C231.24 6.81109 223.27 0.739314 214.385 0.739314C203.457 0.739314 194.5 9.60063 194.5 20.4933C194.5 23.991 195.556 27.5432 197.246 30.62H187.186V0.739314H176.838V40.1865H200.494V34.6668C204.232 38.0908 209.309 40.1865 214.386 40.1865C223.27 40.1865 231.1 34.2495 233.567 25.8682L233.637 40.1865H243.866V20.9897L257.752 40.1865H266.987L267 0.739314H256.842H256.84ZM214.385 30.5509C208.815 30.5509 204.232 26.0833 204.232 20.4933C204.232 14.9803 208.815 10.4436 214.385 10.4436C220.03 10.4436 224.613 14.9803 224.613 20.4933C224.613 26.0833 220.03 30.5509 214.385 30.5509ZM45.9048 30.6206V25.0997H56.8032L56.7838 15.4691H45.9048V10.4442H57.9178L57.8971 0.739919L34.7673 0.804159V14.3516C32.3699 6.95138 25.4565 1.5026 17.5591 0.804159L0 0.739919V40.1856H17.6313C25.4565 39.4901 32.3699 34.0444 34.7673 26.7121V40.1856H57.9178L57.8971 30.6206H45.9055H45.9048ZM23.554 26.5C22.9216 29.1562 20.381 31.0367 17.631 31.1073H11.1439V9.9497H17.6313C20.381 9.9497 22.9216 11.9138 23.554 14.6325C24.1906 16.4487 24.5429 18.5428 24.5429 20.4939C24.5429 22.5238 24.1909 24.6149 23.5537 26.5" fill="white"/>
</svg>
