<svg xmlns="http://www.w3.org/2000/svg" width="50" height="50" fill="none" xmlns:v="https://vecta.io/nano"><path fill-rule="evenodd" d="M38.889 8.824c0-2.34-.878-4.584-2.441-6.239S32.766 0 30.556 0H19.444c-2.21 0-4.33.93-5.893 2.584s-2.441 3.899-2.441 6.239H8.333c-2.21 0-4.33.93-5.893 2.584S0 15.307 0 17.647v23.529c0 2.34.878 4.584 2.441 6.239S6.123 50 8.333 50h33.333c2.21 0 4.33-.93 5.892-2.584S50 43.517 50 41.177V17.647c0-2.34-.878-4.584-2.441-6.239s-3.682-2.584-5.892-2.584h-2.778zm-8.333-2.941H19.444c-.737 0-1.443.31-1.964.861s-.814 1.3-.814 2.08h16.667c0-.78-.293-1.528-.814-2.08s-1.227-.861-1.964-.861h0zM8.333 14.706h33.333c.737 0 1.443.31 1.964.861a3.03 3.03 0 0 1 .814 2.08v23.529a3.03 3.03 0 0 1-.814 2.08c-.521.551-1.227.861-1.964.861H8.333c-.737 0-1.443-.31-1.964-.861s-.814-1.3-.814-2.08V17.647c0-.78.293-1.528.814-2.08s1.227-.861 1.964-.861z" fill="#1096e1"/></svg>