<svg xmlns="http://www.w3.org/2000/svg" width="50" height="50" fill="#1096e1" xmlns:v="https://vecta.io/nano"><path d="M12.815 10.457C7.554 10.362 2.392 13.888.734 19.78c-.817 2.711-.852 5.365-.587 8.15a13.73 13.73 0 0 0 3.427 8.058 13.1 13.1 0 0 0 15.26 1.949 11.32 11.32 0 0 0 3.654-3.512c.937-1.432 1.536-3.057 1.754-4.754-1.308-.401-2.02-.162-2.453 1.229a8.52 8.52 0 0 1-5.393 6.007C8.218 39.641 1.823 34.29 2.184 25.427h22.298c.194-4.963-.794-9.365-4.752-12.476-2.112-1.658-4.523-2.45-6.914-2.493h0zm-.026 2.036c5.408.042 9.462 4.598 9.587 11.023H2.211l-.015-.029c.265-6.622 4.573-11.077 10.593-10.994h0zM50 39.328c-.76.287-1.599.287-2.358-.002s-1.387-.845-1.764-1.565l-7.506-10.38-1.088-1.451-8.709 11.844a3.19 3.19 0 0 1-3.92 1.54L35.876 24.26 25.438 10.661a3.47 3.47 0 0 1 4.134 1.449l7.78 10.508 7.823-10.464a3.12 3.12 0 0 1 3.89-1.453l-4.051 5.376-5.487 7.142a1.45 1.45 0 0 0 0 2.162l10.451 13.95.022-.002z"/></svg>