<?xml version="1.0" encoding="UTF-8" standalone="no"?>
<!-- Created with Inkscape (http://www.inkscape.org/) -->

<svg
   width="50"
   height="50"
   viewBox="0 0 13.229166 13.229167"
   version="1.1"
   id="svg5"
   sodipodi:docname="Express Icon.svg"
   inkscape:version="1.1.2 (b8e25be833, 2022-02-05)"
   xmlns:inkscape="http://www.inkscape.org/namespaces/inkscape"
   xmlns:sodipodi="http://sodipodi.sourceforge.net/DTD/sodipodi-0.dtd"
   xmlns="http://www.w3.org/2000/svg"
   xmlns:svg="http://www.w3.org/2000/svg">
  <sodipodi:namedview
     id="namedview7"
     pagecolor="#505050"
     bordercolor="#ffffff"
     borderopacity="1"
     inkscape:pageshadow="0"
     inkscape:pageopacity="0"
     inkscape:pagecheckerboard="1"
     inkscape:document-units="px"
     showgrid="false"
     units="px"
     width="50px"
     inkscape:zoom="8.1437115"
     inkscape:cx="30.207357"
     inkscape:cy="25.1114"
     inkscape:window-width="1920"
     inkscape:window-height="1001"
     inkscape:window-x="-9"
     inkscape:window-y="-9"
     inkscape:window-maximized="1"
     inkscape:current-layer="layer1" />
  <defs
     id="defs2">
    <clipPath
       id="clip0_82_23">
      <rect
         width="26"
         height="30"
         fill="white"
         id="rect830" />
    </clipPath>
  </defs>
  <g
     inkscape:label="Layer 1"
     inkscape:groupmode="layer"
     id="layer1">
    <g
       id="g4279"
       transform="matrix(0.15392393,0,0,0.15392393,2.4701404,7.0804444)"
       style="fill:none;stroke-width:1.71892">
      <path
         id="path2249"
         style="fill:#00d252;fill-opacity:1;stroke:none;stroke-width:1.71892;stroke-opacity:1"
         d="m 5.9806675,-28.02333 c -9.0431085,-0.163872 -17.9173475,5.89728 -20.7659555,16.025382 -1.404727,4.6600983 -1.464271,9.2227968 -1.009825,14.0085343 0.398816,5.136129 2.469013,10.0002857 5.8906528,13.8514497 3.4605039,3.253418 7.8608633,5.328158 12.5723375,5.929925 4.7114452,0.601623 9.4909177,-0.301278 13.6578997,-2.580667 2.522823,-1.511311 4.670436,-3.575736 6.280557,-6.036517 1.610121,-2.460924 2.640894,-5.2544037 3.015455,-8.1711767 -2.247649,-0.689377 -3.472793,-0.279049 -4.216025,2.112219 -0.570744,2.35364 -1.714551,4.5289087 -3.332427,6.3310497 -1.617876,1.80214 -3.659526,3.174211 -5.938339,3.994424 -14.056781,4.699955 -25.050536,-4.499226 -24.429381,-19.7336897 h 38.328518 c 0.333916,-8.5310123 -1.364388,-16.0985373 -8.168373,-21.4447813 -3.630886,-2.849951 -7.77459,-4.211665 -11.8850945,-4.286152 z m -0.04488,3.50073 c 9.2957885,0.07181 16.2643765,7.903911 16.4798045,18.9482686 h -34.662289 l -0.02524,-0.050497 C -11.815949,-17.006692 -4.4119725,-24.666224 5.9357865,-24.522605 Z"
         sodipodi:nodetypes="sccccccccsccccsccccc" />
      <path
         d="m 69.898332,21.60371 c -1.306176,0.49408 -2.748176,0.492883 -4.053604,-0.0031 -1.305578,-0.496024 -2.384385,-1.45262 -3.032985,-2.689389 L 49.910036,1.0694294 48.040224,-1.4249005 33.070505,18.933618 c -0.609559,1.184863 -1.629878,2.107204 -2.870087,2.594552 -1.24021,0.487198 -2.615494,0.506046 -3.868717,0.0531 L 45.620687,-4.2969328 27.677966,-27.673322 c 1.29017,-0.46493 2.701056,-0.471093 3.995266,-0.01746 1.294209,0.453638 2.392462,1.339375 3.110021,2.508038 L 48.156152,-7.1203527 61.603844,-25.107948 c 0.614345,-1.163817 1.634964,-2.061327 2.867694,-2.52189 1.23273,-0.460571 2.591859,-0.452091 3.818755,0.02383 l -6.963181,9.240606 -9.431335,12.2771883 c -0.261923,0.2336518 -0.471492,0.5199575 -0.614944,0.840219 -0.143601,0.320411 -0.217795,0.6674482 -0.217795,1.0183747 0,0.3509264 0.07419,0.6979636 0.217795,1.0182251 0.143452,0.3204114 0.353021,0.6067164 0.614944,0.8403684 L 69.860936,21.60745 Z"
         id="path1196"
         style="fill:#00d252;fill-opacity:1;stroke:none;stroke-width:1.71892;stroke-opacity:1" />
    </g>
  </g>
</svg>
