<svg xmlns="http://www.w3.org/2000/svg" width="50" height="50" fill="none" xmlns:v="https://vecta.io/nano"><path fill-rule="evenodd" d="M25 2.272c-12.615 0-22.827 10.602-22.827 23.658 0 9.587 5.506 17.837 13.431 21.548a2.1 2.1 0 0 0 2.273-.261 2.98 2.98 0 0 0 .825-1.068 3.11 3.11 0 0 0 .283-1.339v-1.239l-2.827-.4a.84.84 0 0 1-.062-.011c-1.558-.317-2.61-.889-3.381-1.713-.648-.694-1.044-1.524-1.379-2.228l-.117-.246a25.71 25.71 0 0 0-1.014-1.978c-.281-.465-.5-.704-.717-.854-.55-.38-1.079-1.026-1.079-1.832-.002-.232.046-.462.139-.672a1.56 1.56 0 0 1 .402-.545 1.71 1.71 0 0 1 1.138-.396c.463 0 .898.148 1.26.317.371.174.74.404 1.083.643.838.583 1.662 1.272 2.361 2.122.727.883 1.242 1.443 2.017 1.558a9.4 9.4 0 0 0 1.794.074 5.75 5.75 0 0 1 .346-1.217c-.618-.151-1.228-.337-1.827-.557-1.362-.504-2.881-1.289-3.902-2.478-1.121-1.309-1.815-2.476-2.202-3.841-.377-1.33-.44-2.772-.44-4.546 0-2.717 1.127-5.006 1.973-6.222a19.51 19.51 0 0 1-.698-3.263 7.97 7.97 0 0 1 .002-2.104c.104-.637.364-1.42 1.05-1.891.66-.459 1.435-.439 2.04-.322.627.124 1.279.396 1.879.707.977.504 1.948 1.178 2.675 1.75 1.254-.385 3.473-.88 5.479-.926h.046c2.008.046 4.127.541 5.35.924.729-.57 1.698-1.246 2.673-1.748.6-.311 1.25-.583 1.879-.707.604-.117 1.379-.137 2.042.319.683.474.946 1.257 1.048 1.893.106.663.081 1.404 0 2.104-.139 1.107-.371 2.199-.696 3.263.846 1.217 1.973 3.507 1.973 6.222 0 1.774-.062 3.215-.437 4.543-.39 1.37-1.083 2.535-2.204 3.844-1.021 1.189-2.54 1.974-3.902 2.478-.723.265-1.462.481-2.212.646.256.809.348 1.463.348 1.839v6.717c0 1.022.456 1.894 1.104 2.402.629.498 1.437.652 2.267.274 8-3.678 13.571-11.95 13.571-21.587C47.825 12.874 37.617 2.272 25 2.272zm-5.258 37.315c-.542.08-.002 0-.002 0h-.006l-.017.004-.06.009c-.309.038-.62.065-.931.081-.742.04-1.485.009-2.221-.094-1.648-.244-2.65-1.461-3.298-2.252l-.062-.074a7.7 7.7 0 0 0-.681-.724c.215.413.438.874.677 1.37l.021.044.106.226c.364.757.604 1.261 1.002 1.682.387.413.992.813 2.213 1.065l3.737.528c.261.037.501.171.674.378s.268.473.268.748v2.233c0 1.739-.781 3.289-1.979 4.228a4.25 4.25 0 0 1-2.164.905c-.787.09-1.582-.045-2.301-.392C6.046 45.493 0 36.456 0 25.93 0 11.6 11.202 0 25 0s25 11.6 25 25.93c0 10.58-6.123 19.641-14.869 23.665a4.19 4.19 0 0 1-2.297.375c-.784-.095-1.529-.41-2.155-.912a5.23 5.23 0 0 1-1.461-1.869c-.342-.733-.517-1.538-.51-2.352v-6.717c0-.152-.102-1.03-.671-2.211a1.18 1.18 0 0 1 .016-1.051c.083-.161.203-.299.348-.402s.312-.167.486-.188c1.068-.14 2.119-.399 3.133-.774 1.237-.457 2.348-1.082 3.008-1.852.981-1.143 1.471-2.022 1.74-2.972.279-.985.35-2.13.35-3.898 0-2.48-1.25-4.565-1.825-5.237-.13-.152-.22-.337-.258-.538s-.024-.407.041-.599a17.62 17.62 0 0 0 .781-3.378c.067-.598.071-1.098.013-1.459-.013-.132-.051-.26-.113-.376a.97.97 0 0 0-.431.02c-.354.07-.806.243-1.319.509-1.021.526-2.083 1.304-2.742 1.861-.145.123-.318.204-.503.237a1.04 1.04 0 0 1-.549-.052c-1.687-.576-3.442-.907-5.215-.985-2.098.052-4.519.674-5.346.985a1.04 1.04 0 0 1-.549.052c-.184-.032-.358-.114-.503-.237-.851-.715-1.77-1.339-2.742-1.861-.417-.229-.861-.4-1.321-.509-.14-.038-.286-.045-.429-.02-.061.116-.1.244-.113.376-.058.361-.054.861.013 1.459a17.77 17.77 0 0 0 .781 3.378c.131.391.05.826-.217 1.137-.575.672-1.825 2.756-1.825 5.237 0 1.765.071 2.913.35 3.898.271.95.758 1.826 1.738 2.972.662.77 1.771 1.395 3.01 1.852a14.46 14.46 0 0 0 3.131.774c.22.025.427.118.594.269s.287.351.342.574a1.18 1.18 0 0 1-.031.675 1.13 1.13 0 0 1-.393.537c-.344.256-.571.717-.698 1.25a4.39 4.39 0 0 0-.117.837v.041a1.17 1.17 0 0 1-.263.752 1.08 1.08 0 0 1-.673.385h0z" fill="#1096e1"/></svg>