<?xml version="1.0" encoding="UTF-8" standalone="no"?>
<!-- Created with Inkscape (http://www.inkscape.org/) -->

<svg
   width="50"
   height="50"
   viewBox="0 0 13.229166 13.229167"
   version="1.1"
   id="svg5"
   sodipodi:docname="Github.svg"
   inkscape:version="1.1.2 (b8e25be833, 2022-02-05)"
   xmlns:inkscape="http://www.inkscape.org/namespaces/inkscape"
   xmlns:sodipodi="http://sodipodi.sourceforge.net/DTD/sodipodi-0.dtd"
   xmlns="http://www.w3.org/2000/svg"
   xmlns:svg="http://www.w3.org/2000/svg">
  <sodipodi:namedview
     id="namedview7"
     pagecolor="#505050"
     bordercolor="#ffffff"
     borderopacity="1"
     inkscape:pageshadow="0"
     inkscape:pageopacity="0"
     inkscape:pagecheckerboard="1"
     inkscape:document-units="px"
     showgrid="false"
     units="px"
     width="50px"
     inkscape:zoom="4.0718557"
     inkscape:cx="22.102944"
     inkscape:cy="15.594855"
     inkscape:window-width="1920"
     inkscape:window-height="1001"
     inkscape:window-x="-9"
     inkscape:window-y="-9"
     inkscape:window-maximized="1"
     inkscape:current-layer="layer1" />
  <defs
     id="defs2">
    <clipPath
       id="clip0_82_23">
      <rect
         width="26"
         height="30"
         fill="white"
         id="rect830" />
    </clipPath>
  </defs>
  <g
     inkscape:label="Layer 1"
     inkscape:groupmode="layer"
     id="layer1">
    <g
       style="fill:none;stroke-width:0.587372"
       id="g5720"
       transform="scale(0.44097222,0.4601372)">
      <path
         fill-rule="evenodd"
         clip-rule="evenodd"
         d="M 15,1.30625 C 7.43125,1.30625 1.30375,7.4025 1.30375,14.91 c 0,5.5125 3.30375,10.2563 8.05875,12.39 0.4975,0.2238 0.9838,0.135 1.3638,-0.15 0.2101,-0.1637 0.3795,-0.3737 0.4949,-0.6138 0.1153,-0.2401 0.1736,-0.5036 0.17,-0.7699 V 25.0537 L 9.695,24.8237 C 9.68244,24.8221 9.66993,24.82 9.6575,24.8175 8.7225,24.635 8.09125,24.3062 7.62875,23.8325 7.24,23.4337 7.0025,22.9563 6.80125,22.5513 L 6.73125,22.41 C 6.54524,22.022 6.34213,21.6425 6.1225,21.2725 5.95375,21.005 5.8225,20.8675 5.6925,20.7812 5.3625,20.5625 5.045,20.1912 5.045,19.7275 5.04387,19.594 5.07245,19.462 5.12866,19.3409 5.18487,19.2198 5.26731,19.1128 5.37,19.0275 5.56382,18.874 5.80537,18.7935 6.0525,18.8 c 0.2775,0 0.53875,0.085 0.75625,0.1825 0.2225,0.1 0.44375,0.2325 0.65,0.37 0.5025,0.335 0.9975,0.7313 1.41625,1.22 0.43625,0.5075 0.745,0.83 1.21,0.8962 0.3825,0.055 0.7725,0.0563 1.0762,0.0425 0.0423,-0.2404 0.1119,-0.4753 0.2076,-0.6999 -0.371,-0.0866 -0.737,-0.1935 -1.0963,-0.3201 C 9.455,20.2012 8.54375,19.75 7.93125,19.0663 7.25875,18.3138 6.8425,17.6425 6.61,16.8575 6.38375,16.0925 6.34625,15.2638 6.34625,14.2438 6.34625,12.6813 7.0225,11.365 7.53,10.6662 7.33502,10.0545 7.19488,9.4266 7.11125,8.79 7.05586,8.38854 7.05628,7.98135 7.1125,7.58 7.175,7.21375 7.33125,6.76375 7.7425,6.4925 8.13875,6.22875 8.60375,6.24 8.96625,6.3075 9.3425,6.37875 9.73375,6.535 10.0937,6.71375 c 0.5863,0.29 1.1688,0.6775 1.6051,1.00625 0.7525,-0.22125 2.0837,-0.50625 3.2875,-0.5325 h 0.0274 c 1.205,0.02625 2.4763,0.31125 3.2101,0.53125 0.4375,-0.3275 1.0187,-0.71625 1.6037,-1.005 0.36,-0.17875 0.75,-0.335 1.1275,-0.40625 0.3625,-0.0675 0.8275,-0.07875 1.225,0.18375 0.41,0.2725 0.5675,0.7225 0.6287,1.08875 0.0638,0.38125 0.0488,0.8075 0,1.21 -0.0832,0.63656 -0.2229,1.2644 -0.4174,1.8762 0.5075,0.7 1.1837,2.0163 1.1837,3.5776 0,1.02 -0.0375,1.8487 -0.2625,2.6124 -0.2338,0.7875 -0.65,1.4576 -1.3225,2.2101 -0.6125,0.6837 -1.5238,1.1349 -2.3413,1.4249 -0.4339,0.1526 -0.8773,0.2766 -1.3275,0.3713 0.1538,0.465 0.2088,0.8412 0.2088,1.0575 v 3.8625 c 0,0.5875 0.2738,1.0888 0.6625,1.3813 0.3775,0.2862 0.8625,0.375 1.36,0.1575 4.8,-2.115 8.1425,-6.8713 8.1425,-12.4125 C 28.695,7.4025 22.57,1.30625 15,1.30625 Z M 11.845,22.7625 c -0.325,0.0462 -0.0012,0 -0.0012,0 H 11.84 l -0.01,0.0025 -0.0362,0.005 c -0.1857,0.0218 -0.3721,0.0372 -0.5588,0.0463 -0.4449,0.0231 -0.8909,0.0051 -1.3325,-0.0538 -0.98875,-0.14 -1.59,-0.84 -1.97875,-1.295 L 7.88625,21.425 C 7.75915,21.2776 7.62261,21.1385 7.4775,21.0087 7.60625,21.2462 7.74,21.5113 7.88375,21.7963 l 0.0125,0.025 0.06375,0.13 c 0.21875,0.435 0.3625,0.7249 0.60125,0.9674 0.2325,0.2375 0.595,0.4676 1.3275,0.6126 l 2.24245,0.3037 c 0.1567,0.0212 0.3003,0.0985 0.4042,0.2176 0.1039,0.1191 0.1611,0.2718 0.1608,0.4299 v 1.2838 c 0,1 -0.4687,1.8912 -1.1875,2.4312 -0.3773,0.2883 -0.8262,0.4682 -1.2983,0.5202 C 9.73836,28.7697 9.26106,28.6918 8.83,28.4925 3.6275,26.1588 0,20.9625 0,14.91 0,6.67 6.72125,0 15,0 c 8.2788,0 15,6.67 15,14.91 0,6.0838 -3.6737,11.2937 -8.9212,13.6075 -0.4315,0.1955 -0.9079,0.2701 -1.3784,0.2157 -0.4706,-0.0544 -0.9175,-0.2357 -1.2929,-0.5245 -0.3712,-0.2857 -0.6712,-0.6536 -0.8763,-1.0748 -0.2052,-0.4212 -0.31,-0.8842 -0.3062,-1.3527 v -3.8625 c 0,-0.0875 -0.0612,-0.5925 -0.4025,-1.2712 -0.0471,-0.0941 -0.0708,-0.1982 -0.0692,-0.3034 0.0017,-0.1053 0.0287,-0.2086 0.0787,-0.3011 0.05,-0.0926 0.1216,-0.1718 0.2088,-0.2309 0.0871,-0.059 0.1872,-0.0962 0.2917,-0.1083 0.6408,-0.0804 1.2712,-0.2296 1.88,-0.4451 0.7425,-0.2625 1.4087,-0.6224 1.805,-1.0649 0.5887,-0.6575 0.8825,-1.1626 1.0438,-1.7088 0.1675,-0.5663 0.2099,-1.225 0.2099,-2.2412 0,-1.4263 -0.75,-2.625 -1.095,-3.0113 -0.0783,-0.0873 -0.1317,-0.194 -0.1545,-0.3091 -0.0229,-0.115 -0.0144,-0.234 0.0245,-0.3446 C 21.2684,9.94896 21.4255,9.29806 21.515,8.63625 21.555,8.2925 21.5575,8.005 21.5225,7.7975 21.5147,7.72163 21.4917,7.6481 21.455,7.58125 21.3689,7.56636 21.2807,7.57019 21.1963,7.5925 20.9838,7.6325 20.7125,7.7325 20.405,7.885 19.7925,8.1875 19.155,8.635 18.76,8.955 18.6729,9.02567 18.569,9.0726 18.4584,9.09122 18.3477,9.10984 18.2342,9.09951 18.1288,9.06125 17.1167,8.73018 16.0639,8.53966 15,8.495 13.7413,8.525 12.2888,8.8825 11.7925,9.06125 11.6871,9.09951 11.5735,9.10984 11.4629,9.09122 11.3523,9.0726 11.2484,9.02567 11.1612,8.955 10.6504,8.54375 10.0993,8.18525 9.51625,7.885 9.26589,7.75353 8.99949,7.6552 8.72375,7.5925 8.63971,7.57038 8.5519,7.56654 8.46625,7.58125 8.42951,7.64809 8.40655,7.72163 8.39875,7.7975 c -0.035,0.2075 -0.0325,0.495 0.0075,0.83875 0.09008,0.6617 0.24714,1.31254 0.46875,1.94255 0.07875,0.225 0.03,0.475 -0.13,0.6537 -0.345,0.3863 -1.095,1.585 -1.095,3.0113 0,1.015 0.0425,1.6749 0.21,2.2412 0.1625,0.5462 0.455,1.05 1.0425,1.7088 0.3975,0.4425 1.0625,0.8024 1.8063,1.0649 0.6084,0.2154 1.2383,0.3646 1.8787,0.4451 0.1318,0.0141 0.2561,0.068 0.3564,0.1545 0.1004,0.0866 0.172,0.2016 0.2054,0.3298 0.0334,0.1283 0.027,0.2636 -0.0185,0.3881 -0.0454,0.1245 -0.1277,0.2322 -0.2358,0.3088 -0.2063,0.1475 -0.3425,0.4125 -0.4188,0.7188 -0.0393,0.1576 -0.0628,0.3188 -0.0699,0.4812 v 0.0238 c 0.0015,0.1584 -0.0545,0.3121 -0.1577,0.4324 -0.1033,0.1202 -0.2467,0.1989 -0.4036,0.2213 z"
         fill="#00d254"
         id="path5711"
         style="stroke-width:0.352423" />
    </g>
  </g>
</svg>
