<?xml version="1.0" encoding="UTF-8" standalone="no"?>
<!-- Created with Inkscape (http://www.inkscape.org/) -->

<svg
   width="50"
   height="50"
   viewBox="0 0 13.229166 13.229167"
   version="1.1"
   id="svg5"
   sodipodi:docname="Html 5.svg"
   inkscape:version="1.1.2 (b8e25be833, 2022-02-05)"
   xmlns:inkscape="http://www.inkscape.org/namespaces/inkscape"
   xmlns:sodipodi="http://sodipodi.sourceforge.net/DTD/sodipodi-0.dtd"
   xmlns="http://www.w3.org/2000/svg"
   xmlns:svg="http://www.w3.org/2000/svg">
  <sodipodi:namedview
     id="namedview7"
     pagecolor="#505050"
     bordercolor="#ffffff"
     borderopacity="1"
     inkscape:pageshadow="0"
     inkscape:pageopacity="0"
     inkscape:pagecheckerboard="1"
     inkscape:document-units="px"
     showgrid="false"
     units="px"
     width="50px"
     inkscape:zoom="4.0718557"
     inkscape:cx="22.102944"
     inkscape:cy="54.888978"
     inkscape:window-width="1920"
     inkscape:window-height="1001"
     inkscape:window-x="-9"
     inkscape:window-y="-9"
     inkscape:window-maximized="1"
     inkscape:current-layer="layer1" />
  <defs
     id="defs2">
    <clipPath
       id="clip0_82_23">
      <rect
         width="26"
         height="30"
         fill="white"
         id="rect830" />
    </clipPath>
  </defs>
  <g
     inkscape:label="Layer 1"
     inkscape:groupmode="layer"
     id="layer1">
    <g
       style="fill:none;stroke-width:0.9"
       id="g5496"
       transform="matrix(0.29398148,0,0,0.29398148,1.6536458,-5.0000011e-8)">
      <path
         d="M 3.9,0 H 5.92875 V 2.00438 H 7.785 V 0 H 9.81375 V 6.0675 H 7.785 V 4.03688 H 5.92875 V 6.0675 H 3.90187 Z m 8.58,2.01187 H 10.695 V 0 h 5.6006 V 2.01187 H 14.5087 V 6.0675 H 12.48 Z M 17.1844,0 h 2.115 L 20.6006,2.13187 21.9,0 h 2.115 V 6.0675 H 21.9956 V 3.06 l -1.395,2.15812 H 20.565 L 19.1681,3.06188 V 6.0675 h -1.9837 z m 7.8394,0 h 2.0306 v 4.06313 h 2.85 v 2.00624 h -4.8806 z"
         fill="#00d254"
         id="path5484"
         style="stroke-width:0.81" />
      <path
         fill-rule="evenodd"
         clip-rule="evenodd"
         d="M 3.83625,41.385 0,8.84438 H 33.75 L 29.9119,41.3812 16.8562,45 Z M 11.5931,23.5725 11.2294,19.485 h 15.2719 l 0.3562,-3.99 H 6.87 L 7.94625,27.5644 H 21.7781 l -0.4631,5.175 -4.4512,1.2037 H 16.86 l -4.4438,-1.2 -0.2849,-3.1819 H 8.1225 l 0.55875,6.2663 8.17495,2.2688 8.1882,-2.2688 0.9975,-11.1825 0.0975,-1.0706 H 11.5931 Z"
         fill="#00d254"
         id="path5486"
         style="stroke-width:0.81" />
    </g>
  </g>
</svg>
