<svg xmlns="http://www.w3.org/2000/svg" width="50" height="50" fill="none" xmlns:v="https://vecta.io/nano"><g clip-path="url(#A)" fill="#1096e1"><path d="M10.584 0h2.254v2.227h2.063V0h2.254v6.742h-2.254V4.485h-2.062v2.256h-2.252L10.584 0zm9.533 2.235h-1.983V0h6.223v2.235h-1.985v4.506h-2.254V2.235zM25.344 0h2.35l1.446 2.369L30.584 0h2.35v6.742H30.69V3.4l-1.55 2.398h-.04l-1.552-2.396v3.34h-2.204V0zm8.711 0h2.256v4.515h3.167v2.229h-5.423V0z"/><path fill-rule="evenodd" d="M10.513 45.982L6.25 9.826h37.5l-4.265 36.152-14.506 4.021-14.467-4.017zm8.619-19.792l-.404-4.542h16.969l.396-4.433H13.883l1.196 13.411h15.369l-.515 5.75-4.946 1.337h-.004l-4.937-1.333-.317-3.535h-4.454l.621 6.962 9.083 2.521 9.098-2.521 1.108-12.425.108-1.189H19.131v-.002z"/></g><defs><clipPath id="A"><path fill="#fff" d="M0 0h50v50H0z"/></clipPath></defs></svg>