<svg xmlns="http://www.w3.org/2000/svg" width="50" height="50" fill="none" xmlns:v="https://vecta.io/nano"><path fill-rule="evenodd" d="M14.693.15C17.359.027 18.209 0 25 0s7.641.03 10.304.15 4.482.545 6.073 1.161a12.3 12.3 0 0 1 4.427 2.886 12.21 12.21 0 0 1 2.882 4.425c.618 1.591 1.041 3.409 1.164 6.068.123 2.67.15 3.52.15 10.309l-.15 10.307c-.12 2.659-.546 4.477-1.164 6.068a12.26 12.26 0 0 1-2.882 4.429 12.25 12.25 0 0 1-4.427 2.882c-1.591.618-3.409 1.041-6.068 1.164-2.668.123-3.518.15-10.309.15s-7.641-.029-10.307-.15c-2.659-.12-4.477-.546-6.068-1.164a12.27 12.27 0 0 1-4.43-2.882c-1.272-1.248-2.256-2.759-2.884-4.427C.695 39.786.273 37.968.15 35.309.027 32.639 0 31.789 0 25l.15-10.304c.12-2.664.545-4.482 1.161-6.073.629-1.668 1.614-3.179 2.886-4.427C5.446 2.924 6.956 1.94 8.623 1.311 10.214.695 12.032.273 14.691.15h.002zm20.409 4.5c-2.636-.12-3.427-.145-10.102-.145s-7.466.025-10.102.145c-2.439.111-3.761.518-4.643.861A7.76 7.76 0 0 0 7.38 7.38c-.829.807-1.468 1.789-1.868 2.875-.343.882-.75 2.205-.861 4.643-.12 2.636-.145 3.427-.145 10.102l.145 10.102c.111 2.438.518 3.761.861 4.643A7.76 7.76 0 0 0 7.38 42.62a7.76 7.76 0 0 0 2.875 1.868c.882.343 2.205.75 4.643.861 2.636.12 3.425.145 10.102.145l10.102-.145c2.438-.111 3.761-.518 4.643-.861a7.76 7.76 0 0 0 2.875-1.868 7.76 7.76 0 0 0 1.868-2.875c.343-.882.75-2.205.861-4.643.12-2.636.145-3.427.145-10.102l-.145-10.102c-.111-2.439-.518-3.761-.861-4.643A7.76 7.76 0 0 0 42.62 7.38c-.807-.829-1.789-1.468-2.875-1.868-.882-.343-2.205-.75-4.643-.861zM21.807 32.707a8.34 8.34 0 0 0 9.091-13.604 8.34 8.34 0 0 0-6.715-2.401c-1.227.121-2.412.513-3.47 1.147a8.34 8.34 0 0 0-3.694 9.574 8.35 8.35 0 0 0 1.8 3.18 8.33 8.33 0 0 0 2.987 2.105h0zm-5.893-16.793a12.85 12.85 0 0 1 18.172 0 12.84 12.84 0 0 1 2.785 4.169 12.85 12.85 0 0 1 0 9.835c-.646 1.559-1.592 2.976-2.785 4.169a12.85 12.85 0 1 1-18.173-18.173zm24.786-1.85a3.04 3.04 0 0 0 .063-4.359 3.05 3.05 0 0 0-1.006-.667 3.04 3.04 0 0 0-4.18 2.86 3.04 3.04 0 0 0 5.123 2.166h0z" fill="#1096e1"/></svg>