<?xml version="1.0" encoding="UTF-8" standalone="no"?>
<!-- Created with Inkscape (http://www.inkscape.org/) -->

<svg
   width="50"
   height="50"
   viewBox="0 0 13.229166 13.229167"
   version="1.1"
   id="svg5"
   sodipodi:docname="Instagram.svg"
   inkscape:version="1.1.2 (b8e25be833, 2022-02-05)"
   xmlns:inkscape="http://www.inkscape.org/namespaces/inkscape"
   xmlns:sodipodi="http://sodipodi.sourceforge.net/DTD/sodipodi-0.dtd"
   xmlns="http://www.w3.org/2000/svg"
   xmlns:svg="http://www.w3.org/2000/svg">
  <sodipodi:namedview
     id="namedview7"
     pagecolor="#505050"
     bordercolor="#ffffff"
     borderopacity="1"
     inkscape:pageshadow="0"
     inkscape:pageopacity="0"
     inkscape:pagecheckerboard="1"
     inkscape:document-units="px"
     showgrid="false"
     units="px"
     width="50px"
     inkscape:zoom="4.0718557"
     inkscape:cx="22.102944"
     inkscape:cy="15.594855"
     inkscape:window-width="1920"
     inkscape:window-height="1001"
     inkscape:window-x="-9"
     inkscape:window-y="-9"
     inkscape:window-maximized="1"
     inkscape:current-layer="layer1" />
  <defs
     id="defs2">
    <clipPath
       id="clip0_82_23">
      <rect
         width="26"
         height="30"
         fill="white"
         id="rect830" />
    </clipPath>
  </defs>
  <g
     inkscape:label="Layer 1"
     inkscape:groupmode="layer"
     id="layer1">
    <g
       style="fill:none;stroke-width:0.6"
       id="g6290"
       transform="scale(0.44097222)">
      <path
         fill-rule="evenodd"
         clip-rule="evenodd"
         d="M 8.81591,0.09 C 10.4155,0.0163636 10.9255,0 15,0 c 4.0745,0 4.5845,0.0177273 6.1827,0.09 1.5982,0.072273 2.6891,0.327273 3.6437,0.696818 0.9995,0.377732 1.9063,0.968182 2.6563,1.731822 0.7637,0.74863 1.3528,1.65409 1.7291,2.655 0.3709,0.95454 0.6246,2.04545 0.6982,3.64091 C 29.9836,10.4168 30,10.9268 30,15 c 0,4.0745 -0.0177,4.5845 -0.09,6.1841 -0.0723,1.5954 -0.3273,2.6864 -0.6982,3.6409 -0.3764,1.001 -0.9664,1.908 -1.7291,2.6577 -0.75,0.7637 -1.6568,1.3528 -2.6563,1.7291 -0.9546,0.3709 -2.0455,0.6246 -3.6409,0.6982 C 19.5845,29.9836 19.0745,30 15,30 10.9255,30 10.4155,29.9823 8.81591,29.91 7.22045,29.8377 6.12955,29.5827 5.175,29.2118 4.17398,28.8354 3.26703,28.2453 2.51727,27.4827 1.75415,26.7336 1.16361,25.8271 0.786818,24.8264 0.417273,23.8718 0.163636,22.7809 0.09,21.1855 0.0163636,19.5832 0,19.0732 0,15 0,10.9255 0.0177273,10.4155 0.09,8.81727 0.162273,7.21909 0.417273,6.12818 0.786818,5.17364 1.16417,4.17284 1.75516,3.26634 2.51864,2.51727 3.26733,1.75432 4.17337,1.16379 5.17364,0.786818 6.12818,0.417273 7.21909,0.163636 8.81455,0.09 Z M 21.0614,2.79 C 19.4795,2.71773 19.005,2.70273 15,2.70273 10.995,2.70273 10.5205,2.71773 8.93864,2.79 7.47545,2.85682 6.68182,3.10091 6.15273,3.30682 5.45318,3.57955 4.95273,3.90273 4.42773,4.42773 3.93006,4.91189 3.54706,5.50129 3.30682,6.15273 3.10091,6.68182 2.85682,7.47545 2.79,8.93864 2.71773,10.5205 2.70273,10.995 2.70273,15 c 0,4.005 0.015,4.4795 0.08727,6.0614 0.06682,1.4631 0.31091,2.2568 0.51682,2.7859 0.24,0.6504 0.62318,1.2409 1.12091,1.725 0.48409,0.4977 1.07454,0.8809 1.725,1.1209 0.52909,0.2059 1.32272,0.45 2.78591,0.5168 1.58186,0.0723 2.05496,0.0873 6.06136,0.0873 4.0064,0 4.4795,-0.015 6.0614,-0.0873 1.4631,-0.0668 2.2568,-0.3109 2.7859,-0.5168 0.6995,-0.2727 1.2,-0.5959 1.725,-1.1209 0.4977,-0.4841 0.8809,-1.0746 1.1209,-1.725 0.2059,-0.5291 0.45,-1.3228 0.5168,-2.7859 0.0723,-1.5819 0.0873,-2.0564 0.0873,-6.0614 0,-4.005 -0.015,-4.4795 -0.0873,-6.06136 C 27.1432,7.47545 26.8991,6.68182 26.6932,6.15273 26.4205,5.45318 26.0973,4.95273 25.5723,4.42773 25.0881,3.9301 24.4987,3.54711 23.8473,3.30682 23.3182,3.10091 22.5245,2.85682 21.0614,2.79 Z m -7.9773,16.8341 c 1.07,0.4454 2.2614,0.5055 3.3708,0.1701 1.1094,-0.3355 2.0679,-1.0457 2.7118,-2.0093 0.644,-0.9637 0.9334,-2.121 0.8188,-3.2743 -0.1145,-1.1533 -0.6259,-2.2311 -1.4469,-3.0492 -0.5233,-0.523 -1.156,-0.9235 -1.8527,-1.1726 -0.6966,-0.2491 -1.4399,-0.34058 -2.1761,-0.268 -0.7363,0.0727 -1.4473,0.3076 -2.0819,0.688 -0.6346,0.3804 -1.1769,0.8968 -1.5879,1.5119 -0.4111,0.6152 -0.6807,1.3138 -0.7893,2.0456 -0.10864,0.7318 -0.05368,1.4786 0.1609,2.1867 0.2147,0.708 0.5836,1.3596 1.0803,1.908 0.4967,0.5483 1.1088,0.9797 1.7922,1.2631 z M 9.54818,9.54818 C 10.2641,8.83224 11.1141,8.26432 12.0495,7.87686 12.9849,7.48939 13.9875,7.28996 15,7.28996 c 1.0125,0 2.0151,0.19943 2.9505,0.5869 0.9354,0.38746 1.7854,0.95538 2.5013,1.67132 0.716,0.71592 1.2839,1.56592 1.6713,2.50132 0.3875,0.9354 0.5869,1.938 0.5869,2.9505 0,1.0125 -0.1994,2.0151 -0.5869,2.9505 -0.3874,0.9354 -0.9553,1.7854 -1.6713,2.5013 C 19.0059,21.8977 17.0448,22.71 15,22.71 12.9552,22.71 10.9941,21.8977 9.54818,20.4518 8.10227,19.0059 7.28997,17.0448 7.28997,15 c 0,-2.0448 0.8123,-4.0059 2.25821,-5.45182 z M 24.42,8.43818 C 24.5974,8.27082 24.7394,8.06957 24.8377,7.84633 24.9359,7.62309 24.9884,7.38241 24.9919,7.13854 24.9955,6.89467 24.9501,6.65256 24.8584,6.42656 24.7667,6.20055 24.6306,5.99524 24.4581,5.82278 24.2857,5.65032 24.0804,5.51421 23.8544,5.42252 23.6283,5.33083 23.3862,5.28542 23.1424,5.28898 c -0.2439,0.00355 -0.4846,0.056 -0.7078,0.15424 -0.2233,0.09824 -0.4245,0.24027 -0.5919,0.41769 -0.3255,0.34504 -0.5037,0.80335 -0.4967,1.27763 0.0069,0.47429 0.1984,0.9272 0.5338,1.26261 0.3354,0.3354 0.7883,0.52689 1.2626,0.5338 0.4743,0.00692 0.9326,-0.17128 1.2776,-0.49677 z"
         fill="#00d254"
         id="path6281"
         style="stroke-width:0.36" />
    </g>
  </g>
</svg>
