<?xml version="1.0" encoding="UTF-8" standalone="no"?>
<!-- Created with Inkscape (http://www.inkscape.org/) -->

<svg
   width="50"
   height="50"
   viewBox="0 0 13.229166 13.229167"
   version="1.1"
   id="svg5"
   sodipodi:docname="Javascript.svg"
   inkscape:version="1.1.2 (b8e25be833, 2022-02-05)"
   xmlns:inkscape="http://www.inkscape.org/namespaces/inkscape"
   xmlns:sodipodi="http://sodipodi.sourceforge.net/DTD/sodipodi-0.dtd"
   xmlns="http://www.w3.org/2000/svg"
   xmlns:svg="http://www.w3.org/2000/svg">
  <sodipodi:namedview
     id="namedview7"
     pagecolor="#505050"
     bordercolor="#ffffff"
     borderopacity="1"
     inkscape:pageshadow="0"
     inkscape:pageopacity="0"
     inkscape:pagecheckerboard="1"
     inkscape:document-units="px"
     showgrid="false"
     units="px"
     width="50px"
     inkscape:zoom="4.0718557"
     inkscape:cx="22.102944"
     inkscape:cy="54.888978"
     inkscape:window-width="1920"
     inkscape:window-height="1001"
     inkscape:window-x="-9"
     inkscape:window-y="-9"
     inkscape:window-maximized="1"
     inkscape:current-layer="layer1" />
  <defs
     id="defs2">
    <clipPath
       id="clip0_82_23">
      <rect
         width="26"
         height="30"
         fill="white"
         id="rect830" />
    </clipPath>
  </defs>
  <g
     inkscape:label="Layer 1"
     inkscape:groupmode="layer"
     id="layer1">
    <g
       style="fill:none;stroke-width:0.9"
       id="g5198"
       transform="matrix(0.29398148,0,0,0.29398148,0,0.58796296)">
      <path
         d="M 0,-2 V 43 H 45 V -2 Z m 24.4896,35.0952 c 0,4.3794 -2.5714,6.3787 -6.3176,6.3787 -3.3847,0 -5.3438,-1.7469 -6.3482,-3.8668 l 3.4457,-2.0796 c 0.6637,1.1748 1.2664,2.1696 2.7225,2.1696 1.3853,0 2.2692,-0.5432 2.2692,-2.6614 V 18.6614 h 4.2284 z m 10.0029,6.3787 c -3.9279,0 -6.4688,-1.8675 -7.7046,-4.32 l 3.4457,-1.988 c 0.9048,1.477 2.0893,2.5714 4.1689,2.5714 1.747,0 2.8736,-0.8743 2.8736,-2.0893 0,-1.4464 -1.1459,-1.9591 -3.0841,-2.8125 l -1.0543,-0.4516 c -3.0536,-1.2953 -5.0722,-2.933 -5.0722,-6.3787 0,-3.1741 2.4204,-5.5848 6.1875,-5.5848 2.692,0 4.6206,0.9337 6.0075,3.3846 l -3.2946,2.1102 c -0.7232,-1.2954 -1.5075,-1.8081 -2.7225,-1.8081 -1.2343,0 -2.0186,0.7843 -2.0186,1.8081 0,1.2664 0.7843,1.7775 2.602,2.5714 l 1.0543,0.4516 c 3.5968,1.5364 5.6153,3.1147 5.6153,6.6488 0,3.7976 -2.9941,5.8853 -7.0023,5.8853 z"
         fill="#00d254"
         id="path5189"
         style="stroke-width:0.81" />
    </g>
  </g>
</svg>
