<svg xmlns="http://www.w3.org/2000/svg" width="50" height="50" fill="none" xmlns:v="https://vecta.io/nano"><path d="M0 0v50h50V0H0zm27.211 38.995c0 4.866-2.857 7.087-7.02 7.087-3.761 0-5.937-1.941-7.053-4.296l3.829-2.311c.738 1.305 1.407 2.411 3.025 2.411 1.539 0 2.521-.604 2.521-2.957V22.957h4.698v16.038zm11.114 7.087c-4.364 0-7.188-2.075-8.561-4.8l3.829-2.209c1.005 1.641 2.321 2.857 4.632 2.857 1.941 0 3.193-.971 3.193-2.321 0-1.607-1.273-2.177-3.427-3.125l-1.171-.502c-3.393-1.439-5.636-3.259-5.636-7.087 0-3.527 2.689-6.205 6.875-6.205 2.991 0 5.134 1.038 6.675 3.761l-3.661 2.345c-.803-1.439-1.675-2.009-3.025-2.009-1.371 0-2.243.871-2.243 2.009 0 1.407.871 1.975 2.891 2.857l1.172.502c3.996 1.707 6.239 3.461 6.239 7.388 0 4.22-3.327 6.539-7.78 6.539l-.002.002z" fill="#1096e1"/></svg>