<svg xmlns="http://www.w3.org/2000/svg" width="50" height="50" fill="none" xmlns:v="https://vecta.io/nano"><path fill-rule="evenodd" d="M0 4.177c0-1.108.44-2.17 1.223-2.954S3.069 0 4.177 0h41.641c.549-.001 1.093.107 1.6.316s.969.517 1.357.905.697.849.907 1.356.318 1.051.318 1.6v41.641a4.18 4.18 0 0 1-1.223 2.958c-.388.389-.849.697-1.356.907s-1.051.318-1.6.318H4.177a4.18 4.18 0 0 1-2.955-1.224 4.18 4.18 0 0 1-.905-1.356C.108 46.913 0 46.369 0 45.821V4.177zm19.791 14.886h6.77v3.4c.977-1.954 3.477-3.714 7.234-3.714 7.202 0 8.909 3.893 8.909 11.036v13.232h-7.289V31.414c0-4.068-.977-6.364-3.459-6.364-3.443 0-4.875 2.475-4.875 6.364v11.605h-7.291V19.064zm-12.5 23.643h7.291V18.75H7.291v23.957zm8.334-31.77a4.69 4.69 0 0 1-1.336 3.382 4.69 4.69 0 0 1-3.352 1.41 4.69 4.69 0 0 1-3.352-1.41 4.69 4.69 0 0 1-1.336-3.382 4.69 4.69 0 0 1 4.688-4.585 4.69 4.69 0 0 1 4.688 4.585z" fill="#1096e1"/></svg>