<svg xmlns="http://www.w3.org/2000/svg" width="50" height="50" fill="none" xmlns:v="https://vecta.io/nano"><g clip-path="url(#A)"><path d="M46.429 7.143H3.571A3.57 3.57 0 0 0 0 10.714v28.571a3.57 3.57 0 0 0 3.571 3.572h42.857A3.57 3.57 0 0 0 50 39.285V10.714a3.57 3.57 0 0 0-3.572-3.571zM42.5 10.714L25 22.821 7.5 10.714h35zM3.571 39.285V12.339l20.411 14.125c.299.207.654.319 1.018.319s.719-.111 1.018-.319l20.411-14.125v26.946H3.571z" fill="#1096e1"/></g><defs><clipPath id="A"><path fill="#fff" d="M0 0h50v50H0z"/></clipPath></defs></svg>