<?xml version="1.0" encoding="UTF-8" standalone="no"?>
<!-- Created with Inkscape (http://www.inkscape.org/) -->

<svg
   width="50"
   height="50"
   viewBox="0 0 13.229166 13.229167"
   version="1.1"
   id="svg5"
   sodipodi:docname="Mail.svg"
   inkscape:version="1.1.2 (b8e25be833, 2022-02-05)"
   xmlns:inkscape="http://www.inkscape.org/namespaces/inkscape"
   xmlns:sodipodi="http://sodipodi.sourceforge.net/DTD/sodipodi-0.dtd"
   xmlns="http://www.w3.org/2000/svg"
   xmlns:svg="http://www.w3.org/2000/svg">
  <sodipodi:namedview
     id="namedview7"
     pagecolor="#505050"
     bordercolor="#ffffff"
     borderopacity="1"
     inkscape:pageshadow="0"
     inkscape:pageopacity="0"
     inkscape:pagecheckerboard="1"
     inkscape:document-units="px"
     showgrid="false"
     units="px"
     width="50px"
     inkscape:zoom="4.0718557"
     inkscape:cx="22.102944"
     inkscape:cy="15.594855"
     inkscape:window-width="1920"
     inkscape:window-height="1001"
     inkscape:window-x="-9"
     inkscape:window-y="-9"
     inkscape:window-maximized="1"
     inkscape:current-layer="layer1" />
  <defs
     id="defs2">
    <clipPath
       id="clip0_82_23">
      <rect
         width="26"
         height="30"
         fill="white"
         id="rect830" />
    </clipPath>
  </defs>
  <g
     inkscape:label="Layer 1"
     inkscape:groupmode="layer"
     id="layer1">
    <g
       style="fill:none;stroke-width:0.6"
       id="g5939"
       transform="matrix(0.44097222,0,0,0.44097222,0,1.8898746)">
      <path
         d="M 27.8571,0 H 2.14286 C 1.57454,0 1.02949,0.225765 0.627628,0.627628 0.225765,1.02949 0,1.57454 0,2.14286 V 19.2857 c 0,0.5683 0.225765,1.1134 0.627628,1.5152 0.401862,0.4019 0.946912,0.6277 1.515232,0.6277 H 27.8571 c 0.5684,0 1.1134,-0.2258 1.5153,-0.6277 C 29.7742,20.3991 30,19.854 30,19.2857 V 2.14286 C 30,1.57454 29.7742,1.02949 29.3724,0.627628 28.9705,0.225765 28.4255,0 27.8571,0 Z M 25.5,2.14286 15,9.40714 4.5,2.14286 Z M 2.14286,19.2857 V 3.11786 L 14.3893,11.5929 c 0.1793,0.1244 0.3924,0.1911 0.6107,0.1911 0.2183,0 0.4314,-0.0667 0.6107,-0.1911 L 27.8571,3.11786 V 19.2857 Z"
         fill="#00d254"
         id="path5930"
         style="stroke-width:0.36" />
    </g>
  </g>
</svg>
