<?xml version="1.0" encoding="UTF-8" standalone="no"?>
<!-- Created with Inkscape (http://www.inkscape.org/) -->

<svg
   width="50"
   height="50"
   viewBox="0 0 13.229166 13.229167"
   version="1.1"
   id="svg5"
   sodipodi:docname="Mongo Icon.svg"
   inkscape:version="1.1.2 (b8e25be833, 2022-02-05)"
   xmlns:inkscape="http://www.inkscape.org/namespaces/inkscape"
   xmlns:sodipodi="http://sodipodi.sourceforge.net/DTD/sodipodi-0.dtd"
   xmlns="http://www.w3.org/2000/svg"
   xmlns:svg="http://www.w3.org/2000/svg">
  <sodipodi:namedview
     id="namedview7"
     pagecolor="#505050"
     bordercolor="#ffffff"
     borderopacity="1"
     inkscape:pageshadow="0"
     inkscape:pageopacity="0"
     inkscape:pagecheckerboard="1"
     inkscape:document-units="px"
     showgrid="false"
     units="px"
     width="50px"
     inkscape:zoom="8.1437115"
     inkscape:cx="30.207357"
     inkscape:cy="25.1114"
     inkscape:window-width="1920"
     inkscape:window-height="1001"
     inkscape:window-x="-9"
     inkscape:window-y="-9"
     inkscape:window-maximized="1"
     inkscape:current-layer="layer1" />
  <defs
     id="defs2">
    <clipPath
       id="clip0_82_23">
      <rect
         width="26"
         height="30"
         fill="white"
         id="rect830" />
    </clipPath>
  </defs>
  <g
     inkscape:label="Layer 1"
     inkscape:groupmode="layer"
     id="layer1">
    <g
       style="fill:none;stroke-width:1.2"
       id="g4539"
       transform="matrix(0.22048611,0,0,0.22048611,3.643146,0.44097222)">
      <path
         d="M 26.4589,21.8875 C 23.2989,7.9375 15.8289,3.3525 15.0264,1.6 c -0.7,-0.985 -1.325,-2.385 -1.8375,-3.6 -0.09,1.2375 -0.1375,1.7125 -1.3075,2.96 C 10.0739,2.375 0.786412,10.165 0.0314124,26.01 -0.673588,40.79 10.7064,49.5975 12.2514,50.72 l 0.175,0.125 c 0.3217,2.3794 0.5968,4.7648 0.825,7.155 h 1.2025 c 0.2848,-2.5797 0.7104,-5.1418 1.275,-7.675 1.0425,-0.74 1.51,-1.1575 2.125,-1.7325 2.9124,-2.6943 5.227,-5.9697 6.7941,-9.6147 1.5671,-3.6449 2.3518,-7.5781 2.3034,-11.5453 0.025,-2.035 -0.2575,-4.155 -0.4925,-5.545 z m -13.34,20.4875 c 0,0 0,-20.7275 0.6875,-20.725 0.5325,0 1.225,26.7375 1.225,26.7375 -0.9525,-0.1125 -1.9125,-4.4 -1.9125,-6.0125 z"
         fill="#00d254"
         id="path4530"
         style="stroke-width:1.44" />
    </g>
  </g>
</svg>
