<svg xmlns="http://www.w3.org/2000/svg" width="50" height="50" fill="none" xmlns:v="https://vecta.io/nano"><g clip-path="url(#A)"><path d="M35.819 19.906C33.185 8.281 26.96 4.46 26.292 3c-.583-.821-1.104-1.987-1.531-3-.075 1.031-.115 1.427-1.09 2.467-1.506 1.179-9.246 7.671-9.875 20.875-.588 12.317 8.896 19.656 10.183 20.592l.146.104c.268 1.983.497 3.971.688 5.962h1.002a59.34 59.34 0 0 1 1.063-6.396 14.49 14.49 0 0 0 1.771-1.444 23.63 23.63 0 0 0 7.581-17.633c.021-1.696-.215-3.463-.41-4.621h0zM24.702 36.979s0-17.273.573-17.271c.444 0 1.021 22.281 1.021 22.281-.794-.094-1.594-3.667-1.594-5.01z" fill="#1096e1"/></g><defs><clipPath id="A"><path fill="#fff" d="M0 0h50v50H0z"/></clipPath></defs></svg>