<svg xmlns="http://www.w3.org/2000/svg" width="50" height="50" fill="none" xmlns:v="https://vecta.io/nano"><path d="M23.363.013l-.758.069c-7.1.642-13.75 4.472-17.967 10.361a24.73 24.73 0 0 0-4.413 10.92C.025 22.738 0 23.142 0 25.004s.025 2.268.225 3.641c1.358 9.388 8.042 17.274 17.102 20.197 1.623.523 3.333.879 5.277 1.096.758.083 4.033.083 4.792 0 3.356-.373 6.202-1.204 9.006-2.635.431-.219.515-.279.456-.327l-4.073-5.457-3.998-5.401-5.008-7.413-5.046-7.407c-.019-.006-.038 3.287-.048 7.311l-.108 7.491a.89.89 0 0 1-.429.444c-.156.079-.292.094-1.031.094h-.846l-.225-.142c-.139-.088-.252-.212-.327-.358l-.104-.219.01-9.798.015-9.803.152-.192a1.34 1.34 0 0 1 .362-.298c.2-.098.277-.106 1.125-.106.996 0 1.163.037 1.421.321.073.079 2.785 4.166 6.031 9.086l9.862 14.939 3.958 5.995.202-.131a25.67 25.67 0 0 0 5.135-4.505 24.88 24.88 0 0 0 5.885-12.779c.2-1.375.225-1.779.225-3.641s-.025-2.266-.225-3.641C48.415 11.98 41.731 4.092 32.671 1.17A25.94 25.94 0 0 0 27.469.077c-.471-.05-3.7-.104-4.104-.062l-.002-.002zm10.235 15.122a.98.98 0 0 1 .304.238c.084.099.149.213.189.337s.048 2.843.037 8.967l-.015 8.786-1.548-2.375-1.554-2.375v-6.386l.048-6.563c.035-.13.095-.252.178-.358a1 1 0 0 1 .305-.259c.202-.104.275-.113 1.042-.113.723 0 .85.01 1.013.098v.002z" fill="#1096e1"/></svg>