<?xml version="1.0" encoding="UTF-8" standalone="no"?>
<!-- Created with Inkscape (http://www.inkscape.org/) -->

<svg
   width="50"
   height="50"
   viewBox="0 0 13.229166 13.229167"
   version="1.1"
   id="svg5"
   sodipodi:docname="NextJS Icon.svg"
   inkscape:version="1.1.2 (b8e25be833, 2022-02-05)"
   xmlns:inkscape="http://www.inkscape.org/namespaces/inkscape"
   xmlns:sodipodi="http://sodipodi.sourceforge.net/DTD/sodipodi-0.dtd"
   xmlns="http://www.w3.org/2000/svg"
   xmlns:svg="http://www.w3.org/2000/svg">
  <sodipodi:namedview
     id="namedview7"
     pagecolor="#505050"
     bordercolor="#ffffff"
     borderopacity="1"
     inkscape:pageshadow="0"
     inkscape:pageopacity="0"
     inkscape:pagecheckerboard="1"
     inkscape:document-units="px"
     showgrid="false"
     units="px"
     width="50px"
     inkscape:zoom="8.1437115"
     inkscape:cx="30.207357"
     inkscape:cy="25.1114"
     inkscape:window-width="1920"
     inkscape:window-height="1001"
     inkscape:window-x="-9"
     inkscape:window-y="-9"
     inkscape:window-maximized="1"
     inkscape:current-layer="layer1" />
  <defs
     id="defs2">
    <clipPath
       id="clip0_82_23">
      <rect
         width="26"
         height="30"
         fill="white"
         id="rect830" />
    </clipPath>
  </defs>
  <g
     inkscape:label="Layer 1"
     inkscape:groupmode="layer"
     id="layer1">
    <g
       style="fill:none;stroke-width:1.2"
       id="g4648"
       transform="scale(0.22048611)">
      <path
         d="m 28.035,0.0153099 c -0.13,0.0124978 -0.54,0.0549905 -0.91,0.0824858 C 18.605,0.867663 10.625,5.46437 5.565,12.5307 2.77075,16.4093 0.9543,20.9051 0.27,25.6359 0.03,27.2856 0,27.7705 0,30.0052 c 0,2.2346 0.03,2.722 0.27,4.3692 1.63,11.2656 9.65,20.7289 20.5225,24.2358 1.9475,0.6274 4,1.0549 6.3325,1.3148 0.91,0.1 4.84,0.1 5.75,0 4.0275,-0.4474 7.4425,-1.4447 10.8075,-3.1619 C 44.2,56.5006 44.3,56.4281 44.23,56.3706 42.584,54.2003 40.9548,52.0173 39.3425,49.8217 l -4.7975,-6.4813 -6.01,-8.896 c -1.9997,-2.9755 -4.0181,-5.9384 -6.055,-8.8885 -0.0225,-0.0075 -0.045,3.9443 -0.0575,8.7735 -0.0175,8.4486 -0.025,8.7885 -0.13,8.9885 -0.1024,0.2333 -0.2851,0.4222 -0.515,0.5324 -0.1875,0.095 -0.35,0.1125 -1.2375,0.1125 h -1.015 l -0.27,-0.17 c -0.1671,-0.1055 -0.3027,-0.254 -0.3925,-0.4299 l -0.125,-0.2625 0.0125,-11.758 0.0175,-11.763 0.1825,-0.2299 c 0.1229,-0.1438 0.2701,-0.2648 0.435,-0.3575 0.24,-0.1174 0.3325,-0.1274 1.35,-0.1274 1.195,0 1.395,0.045 1.705,0.3849 0.0875,0.095 3.3425,4.9991 7.2375,10.9031 l 11.835,17.927 4.75,7.1937 0.2425,-0.1575 C 48.791,53.5963 50.8635,51.778 52.6675,49.7093 56.4479,45.3832 58.9001,40.0588 59.73,34.3744 59.97,32.7247 60,32.2398 60,30.0052 60,27.7705 59.97,27.2856 59.73,25.6359 58.1,14.3728 50.08,4.90697 39.2075,1.40007 37.1755,0.754106 35.0831,0.316101 32.9625,0.0927965 32.3975,0.0328069 28.5225,-0.032182 28.0375,0.0178094 Z M 40.3175,18.1622 c 0.1394,0.0702 0.2635,0.1673 0.3652,0.2857 0.1017,0.1184 0.179,0.2558 0.2273,0.4042 0.045,0.1499 0.0575,3.4119 0.045,10.7606 L 40.9375,40.1559 39.08,37.3064 37.215,34.4569 v -7.6637 c 0,-4.9566 0.0225,-7.7412 0.0575,-7.8761 0.0416,-0.1562 0.1145,-0.3022 0.2142,-0.4294 0.0997,-0.1272 0.2241,-0.2328 0.3658,-0.3105 0.2425,-0.125 0.33,-0.135 1.25,-0.135 0.8675,0 1.02,0.0125 1.215,0.1175 z"
         fill="#00d254"
         id="path4639"
         style="stroke-width:1.44" />
    </g>
  </g>
</svg>
