<svg xmlns="http://www.w3.org/2000/svg" width="50" height="50" fill="none" xmlns:v="https://vecta.io/nano"><g clip-path="url(#A)"><path d="M24.711 40.311a1.03 1.03 0 0 1-.476-.125l-1.5-.891c-.227-.125-.117-.172-.039-.195.297-.102.359-.125.68-.312.031-.016.078-.008.109.008l1.156.688a.15.15 0 0 0 .141 0l4.516-2.609c.039-.023.07-.07.07-.125v-5.211c0-.055-.024-.102-.07-.125l-4.516-2.602c-.039-.023-.094-.023-.141 0l-4.516 2.602c-.047.023-.07.078-.07.125v5.211c0 .047.031.094.07.117l1.234.711c.672.336 1.086-.062 1.086-.453v-5.148c0-.07.055-.133.133-.133h.57c.07 0 .133.055.133.133v5.148c0 .898-.484 1.406-1.336 1.406-.258 0-.469 0-1.039-.281l-1.187-.68c-.289-.172-.476-.484-.476-.82v-5.211a.94.94 0 0 1 .476-.82l4.516-2.609a.97.97 0 0 1 .945 0l4.516 2.609c.289.172.477.484.477.82v5.211a.94.94 0 0 1-.477.82l-4.516 2.609c-.133.086-.297.133-.469.133h0zm3.648-5.141c0-.977-.656-1.234-2.047-1.422-1.406-.187-1.547-.281-1.547-.609 0-.273.117-.633 1.156-.633.93 0 1.273.203 1.414.828.016.063.063.102.125.102h.586a.13.13 0 0 0 .094-.039c.023-.031.039-.062.031-.102-.094-1.078-.805-1.578-2.25-1.578-1.289 0-2.055.547-2.055 1.453 0 .992.766 1.258 2 1.383 1.476.148 1.594.359 1.594.648 0 .508-.406.719-1.359.719-1.195 0-1.461-.297-1.547-.891-.008-.062-.062-.109-.133-.109h-.586c-.07 0-.133.055-.133.133 0 .758.414 1.664 2.391 1.664 1.445 0 2.266-.562 2.266-1.547h0zm4.258-3.914a.87.87 0 0 1-.867.867.87.87 0 0 1-.867-.867.87.87 0 0 1 .867-.867.86.86 0 0 1 .867.867zm-.141 0c0-.406-.328-.727-.734-.727-.399 0-.727.32-.727.727a.73.73 0 0 0 .727.734c.406-.008.734-.336.734-.734zm-.352.484h-.203l-.039-.305c-.016-.055-.031-.086-.102-.086h-.172v.391h-.187v-.977h.336c.117 0 .344 0 .344.258 0 .18-.117.219-.187.242.133.008.141.094.164.219.008.078.023.211.047.258zm-.219-.687c0-.133-.094-.133-.14-.133h-.156v.273h.148a.13.13 0 0 0 .148-.141h0zM10.725 19.92a.57.57 0 0 0-.289-.5l-4.789-2.758a.62.62 0 0 0-.266-.078h-.047a.55.55 0 0 0-.266.078L.289 19.421c-.18.102-.289.297-.289.5l.008 7.422c0 .102.055.195.141.25s.195.055.289 0l2.844-1.633c.18-.109.289-.297.289-.5v-3.469c0-.203.109-.398.289-.5l1.211-.695a.55.55 0 0 1 .289-.078c.102 0 .203.023.289.078l1.211.695c.18.102.289.297.289.5v3.469c0 .203.109.398.289.5l2.844 1.633c.086.055.203.055.289 0 .086-.047.141-.148.141-.25l.016-7.422zm26.188-8.102V25.6c0 .203-.109.398-.289.5l-4.789 2.766c-.18.102-.398.102-.578 0L26.469 26.1c-.18-.102-.289-.297-.289-.5v-5.531c0-.203.109-.398.289-.5l4.789-2.766c.18-.102.398-.102.578 0l1.195.688c.133.078.305-.023.305-.172V9.975c0-.219.234-.359.43-.25l2.851 1.594c.18.094.297.289.297.5h0zM33.32 21.89c0-.055-.031-.102-.07-.125l-1.641-.953a.17.17 0 0 0-.149 0l-1.641.953c-.047.023-.07.07-.07.125v1.898c0 .055.031.102.07.125l1.641.945c.047.023.102.023.141 0l1.641-.945c.047-.023.07-.07.07-.125V21.89h.008zm16.391-.055c.18-.102.289-.297.289-.5v-1.336c0-.203-.109-.398-.289-.5l-4.758-2.766c-.18-.102-.399-.102-.578 0l-4.789 2.766c-.18.102-.289.297-.289.5v5.531a.57.57 0 0 0 .289.5l4.758 2.711a.57.57 0 0 0 .57 0l2.875-1.602c.195-.109.195-.391 0-.5l-4.82-2.766c-.094-.055-.148-.148-.148-.25V21.89a.29.29 0 0 1 .148-.25l1.5-.867c.086-.055.203-.055.289 0l1.5.867c.086.055.148.148.148.25v1.359c0 .219.242.36.438.25l2.867-1.664zm-6.039.273c-.031.023-.055.055-.055.094v1.063c0 .039.023.078.055.094l.922.531c.031.023.078.023.11 0l.922-.531c.031-.023.055-.055.055-.094v-1.062c0-.039-.023-.078-.055-.094l-.922-.531c-.031-.023-.078-.023-.11 0l-.922.531zm-19.859 3.398v-5.5c0-.203-.125-.398-.305-.5l-4.773-2.75c-.164-.094-.391-.109-.578 0l-4.773 2.75c-.18.102-.305.289-.305.5v5.5c0 .219.149.406.313.5l4.781 2.75c.188.109.406.102.578 0l4.766-2.75a.58.58 0 0 0 .281-.367.69.69 0 0 0 .016-.133h0zm-5.805-9.758l-.062.039h.086l-.024-.039zm5.953 10.172l-.031-.055v.07l.031-.015z" fill="#1096e1"/></g><defs><clipPath id="A"><path fill="#fff" d="M0 0h50v50H0z"/></clipPath></defs></svg>