<?xml version="1.0" encoding="UTF-8" standalone="no"?>
<!-- Created with Inkscape (http://www.inkscape.org/) -->

<svg
   width="50"
   height="50"
   viewBox="0 0 13.229166 13.229167"
   version="1.1"
   id="svg5"
   sodipodi:docname="NodeJS Icon.svg"
   inkscape:version="1.1.2 (b8e25be833, 2022-02-05)"
   xmlns:inkscape="http://www.inkscape.org/namespaces/inkscape"
   xmlns:sodipodi="http://sodipodi.sourceforge.net/DTD/sodipodi-0.dtd"
   xmlns="http://www.w3.org/2000/svg"
   xmlns:svg="http://www.w3.org/2000/svg">
  <sodipodi:namedview
     id="namedview7"
     pagecolor="#505050"
     bordercolor="#ffffff"
     borderopacity="1"
     inkscape:pageshadow="0"
     inkscape:pageopacity="0"
     inkscape:pagecheckerboard="1"
     inkscape:document-units="px"
     showgrid="false"
     units="px"
     width="50px"
     inkscape:zoom="8.1437115"
     inkscape:cx="30.207357"
     inkscape:cy="25.1114"
     inkscape:window-width="1920"
     inkscape:window-height="1001"
     inkscape:window-x="-9"
     inkscape:window-y="-9"
     inkscape:window-maximized="1"
     inkscape:current-layer="layer1" />
  <defs
     id="defs2">
    <clipPath
       id="clip0_82_23">
      <rect
         width="26"
         height="30"
         fill="white"
         id="rect830" />
    </clipPath>
  </defs>
  <g
     inkscape:label="Layer 1"
     inkscape:groupmode="layer"
     id="layer1">
    <g
       style="fill:none;stroke-width:1.2"
       id="g4847"
       transform="matrix(0.22048611,0,0,0.22048611,0,3.0042779)">
      <path
         d="m 29.6531,34.7486 c -0.1969,0 -0.3937,-0.0562 -0.5718,-0.15 l -1.8001,-1.0687 c -0.2718,-0.15 -0.1406,-0.2063 -0.0468,-0.2344 0.3562,-0.1219 0.4312,-0.15 0.8156,-0.375 0.0375,-0.0187 0.0938,-0.0094 0.1313,0.0094 l 1.3874,0.825 c 0.0469,0.0281 0.1219,0.0281 0.1688,0 l 5.4187,-3.1313 c 0.0469,-0.0281 0.0844,-0.0843 0.0844,-0.15 v -6.2531 c 0,-0.0656 -0.0281,-0.1219 -0.0844,-0.15 l -5.4187,-3.1219 c -0.0469,-0.0281 -0.1125,-0.0281 -0.1688,0 L 24.15,24.0705 c -0.0562,0.0281 -0.0844,0.0938 -0.0844,0.15 v 6.2531 c 0,0.0563 0.0375,0.1125 0.0844,0.1407 l 1.4812,0.8531 c 0.8063,0.4031 1.3032,-0.075 1.3032,-0.5438 v -6.1781 c 0,-0.0844 0.0656,-0.1594 0.1594,-0.1594 h 0.6843 c 0.0844,0 0.1594,0.0657 0.1594,0.1594 v 6.1781 c 0,1.0782 -0.5813,1.6875 -1.6031,1.6875 -0.3094,0 -0.5625,0 -1.2469,-0.3375 l -1.425,-0.8156 c -0.3469,-0.2062 -0.5719,-0.5812 -0.5719,-0.9844 v -6.2531 c 0,-0.4031 0.2156,-0.7875 0.5719,-0.9844 l 5.4188,-3.1312 c 0.3468,-0.1969 0.7968,-0.1969 1.1343,0 l 5.4188,3.1312 c 0.3469,0.2063 0.5719,0.5813 0.5719,0.9844 v 6.2531 c 0,0.4032 -0.2157,0.7875 -0.5719,0.9844 l -5.4188,3.1313 c -0.1594,0.1031 -0.3562,0.1593 -0.5625,0.1593 z m 4.3781,-6.1687 c 0,-1.1719 -0.7875,-1.4813 -2.4562,-1.7063 -1.6875,-0.225 -1.8562,-0.3375 -1.8562,-0.7312 0,-0.3281 0.1406,-0.7594 1.3874,-0.7594 1.1157,0 1.5282,0.2438 1.6969,0.9938 0.0188,0.075 0.075,0.1218 0.15,0.1218 h 0.7031 c 0.0469,0 0.0844,-0.0187 0.1126,-0.0468 0.0281,-0.0375 0.0468,-0.075 0.0375,-0.1219 -0.1125,-1.2938 -0.9657,-1.8938 -2.7001,-1.8938 -1.5468,0 -2.4656,0.6563 -2.4656,1.7438 0,1.1906 0.9188,1.5094 2.4,1.6594 1.7719,0.1781 1.9125,0.4312 1.9125,0.7781 0,0.6094 -0.4875,0.8625 -1.6312,0.8625 -1.4344,0 -1.7532,-0.3563 -1.8563,-1.0688 -0.0094,-0.075 -0.075,-0.1312 -0.1593,-0.1312 h -0.7032 c -0.0843,0 -0.1594,0.0656 -0.1594,0.1594 0,0.9093 0.4969,1.9968 2.8688,1.9968 1.7344,0 2.7187,-0.675 2.7187,-1.8562 z m 5.1094,-4.6969 c 0,0.5719 -0.4687,1.0406 -1.0406,1.0406 -0.5719,0 -1.0406,-0.4687 -1.0406,-1.0406 0,-0.5906 0.4875,-1.0406 1.0406,-1.0406 0.5625,-0.0094 1.0406,0.45 1.0406,1.0406 z m -0.1687,0 c 0,-0.4875 -0.3938,-0.8719 -0.8813,-0.8719 -0.4781,0 -0.8718,0.3844 -0.8718,0.8719 0,0.4875 0.3937,0.8813 0.8718,0.8813 0.4875,-0.0094 0.8813,-0.4032 0.8813,-0.8813 z M 38.55,24.4643 H 38.3063 C 38.2969,24.408 38.2594,24.108 38.2594,24.0986 38.2406,24.033 38.2219,23.9955 38.1375,23.9955 h -0.2062 v 0.4688 h -0.225 v -1.1719 h 0.4031 c 0.1406,0 0.4125,0 0.4125,0.3094 0,0.2156 -0.1407,0.2625 -0.225,0.2906 0.1594,0.0094 0.1687,0.1125 0.1969,0.2625 0.0093,0.0937 0.0281,0.2531 0.0562,0.3094 z m -0.2625,-0.825 c 0,-0.1594 -0.1125,-0.1594 -0.1687,-0.1594 h -0.1875 v 0.3281 h 0.1781 c 0.15,0 0.1781,-0.1031 0.1781,-0.1687 z M 12.8719,10.2799 c 0,-0.2531 -0.1313,-0.47814 -0.3469,-0.60001 L 6.77813,6.37051 C 6.68438,6.31426 6.57188,6.28614 6.45938,6.27676 H 6.40313 c -0.1125,0 -0.21563,0.0375 -0.31875,0.09375 L 0.346875,9.67989 C 0.13125,9.80176 0,10.0361 0,10.2799 l 0.009375,8.9062 c 0,0.1219 0.065625,0.2344 0.16875,0.3 0.103125,0.0657 0.234375,0.0657 0.346875,0 l 3.4125,-1.9593 c 0.21562,-0.1313 0.34688,-0.3563 0.34688,-0.6 v -4.1625 c 0,-0.2438 0.13125,-0.4782 0.34687,-0.6 l 1.45313,-0.8344 c 0.1125,-0.0656 0.22499,-0.0938 0.34687,-0.0938 0.12187,0 0.24375,0.0282 0.34688,0.0938 l 1.45312,0.8344 c 0.21563,0.1218 0.34687,0.3562 0.34687,0.6 v 4.1625 c 0,0.2437 0.13125,0.4781 0.34688,0.6 l 3.4125,1.9593 c 0.1031,0.0657 0.2438,0.0657 0.3469,0 0.1031,-0.0562 0.1687,-0.1781 0.1687,-0.3 z M 44.2969,0.558014 V 17.0955 c 0,0.2438 -0.1313,0.4781 -0.3469,0.6 l -5.7469,3.3188 c -0.2156,0.1218 -0.4781,0.1218 -0.6937,0 l -5.7469,-3.3188 c -0.2156,-0.1219 -0.3469,-0.3562 -0.3469,-0.6 V 10.458 c 0,-0.2437 0.1313,-0.47811 0.3469,-0.59999 l 5.7469,-3.31875 c 0.2156,-0.12187 0.4781,-0.12187 0.6937,0 l 1.4344,0.825 c 0.1594,0.09375 0.3656,-0.02812 0.3656,-0.20625 v -8.8125 c 0,-0.2625 0.2813,-0.43125 0.5157,-0.3 l 3.4218,1.9125035 c 0.2157,0.1125 0.3563,0.3468755 0.3563,0.6000005 z M 39.9844,12.6424 c 0,-0.0656 -0.0375,-0.1219 -0.0844,-0.15 l -1.9687,-1.1438 c -0.0563,-0.0281 -0.1219,-0.0281 -0.1782,0 l -1.9687,1.1438 C 35.7281,12.5205 35.7,12.5768 35.7,12.6424 v 2.2781 c 0,0.0656 0.0375,0.1219 0.0844,0.15 l 1.9687,1.1344 c 0.0563,0.0281 0.1219,0.0281 0.1688,0 l 1.9687,-1.1344 c 0.0563,-0.0281 0.0844,-0.0844 0.0844,-0.15 V 12.6424 Z M 59.6531,12.5768 C 59.8687,12.4549 60,12.2205 60,11.9768 V 10.3736 C 60,10.1299 59.8687,9.89551 59.6531,9.77364 L 53.9438,6.45489 c -0.2157,-0.12188 -0.4782,-0.12188 -0.6938,0 l -5.7469,3.31875 c -0.2156,0.12187 -0.3469,0.35626 -0.3469,0.59996 v 6.6375 c 0,0.2532 0.1313,0.4782 0.3469,0.6 l 5.7094,3.2532 c 0.2062,0.1218 0.4688,0.1218 0.6844,0 l 3.45,-1.9219 c 0.2344,-0.1313 0.2344,-0.4688 0,-0.6 l -5.7844,-3.3188 c -0.1125,-0.0656 -0.1781,-0.1781 -0.1781,-0.3 v -2.0812 c 0,-0.1219 0.0656,-0.2344 0.1781,-0.3 l 1.8,-1.0406 c 0.1031,-0.0657 0.2438,-0.0657 0.3469,0 l 1.8,1.0406 c 0.1031,0.0656 0.1781,0.1781 0.1781,0.3 v 1.6312 c 0,0.2625 0.2906,0.4313 0.525,0.3 z m -7.2469,0.3281 c -0.0375,0.0281 -0.0656,0.0656 -0.0656,0.1125 v 1.275 c 0,0.0469 0.0281,0.0937 0.0656,0.1125 l 1.1063,0.6375 c 0.0375,0.0281 0.0938,0.0281 0.1313,0 L 54.75,14.4049 c 0.0375,-0.0281 0.0656,-0.0656 0.0656,-0.1125 v -1.275 c 0,-0.0469 -0.0281,-0.0938 -0.0656,-0.1125 l -1.1062,-0.6375 c -0.0375,-0.0281 -0.0938,-0.0281 -0.1313,0 z M 28.575,16.983 v -6.6 c 0,-0.2437 -0.15,-0.47811 -0.3656,-0.59999 l -5.7281,-3.3 c -0.1969,-0.1125 -0.4688,-0.13125 -0.6938,0 l -5.7281,3.3 C 15.8438,9.90489 15.6937,10.1299 15.6937,10.383 v 6.6 c 0,0.2625 0.1782,0.4875 0.375,0.6 l 5.7376,3.3 c 0.225,0.1313 0.4874,0.1219 0.6937,0 l 5.7188,-3.3 c 0.1687,-0.0937 0.2906,-0.2531 0.3375,-0.4406 0.0093,-0.0469 0.0187,-0.1031 0.0187,-0.1594 z M 21.6094,5.27364 21.5344,5.32051 h 0.1031 z m 7.1437,12.20626 -0.0375,-0.0656 v 0.0843 z"
         fill="#00d254"
         id="path4838"
         style="stroke-width:1.44" />
    </g>
  </g>
</svg>
