<svg xmlns="http://www.w3.org/2000/svg" width="50" height="50" fill="none" xmlns:v="https://vecta.io/nano"><g clip-path="url(#A)" fill="#1096e1"><path d="M50 25.005c0-3.312-4.148-6.452-10.508-8.398 1.469-6.481.817-11.64-2.058-13.292a4.47 4.47 0 0 0-2.283-.569v2.271c.469 0 .846.094 1.163.267 1.385.796 1.987 3.821 1.519 7.715-.112.958-.296 1.967-.521 2.996a49.41 49.41 0 0 0-6.471-1.11 49.71 49.71 0 0 0-4.24-5.096c3.323-3.088 6.442-4.779 8.563-4.779V2.736c-2.804 0-6.473 1.998-10.183 5.462-3.708-3.442-7.379-5.421-10.181-5.421v2.271c2.11 0 5.24 1.683 8.562 4.75-1.427 1.5-2.854 3.2-4.21 5.085a47.57 47.57 0 0 0-6.481 1.121 30.61 30.61 0 0 1-.531-2.954c-.479-3.896.113-6.921 1.49-7.725.304-.183.702-.267 1.171-.267v-2.27c-.854 0-1.631.183-2.302.569-2.865 1.652-3.506 6.798-2.029 13.26C4.127 18.576 0 21.703 0 25.005c0 3.313 4.148 6.452 10.508 8.396-1.469 6.483-.817 11.642 2.058 13.292.662.388 1.437.571 2.292.571 2.804 0 6.473-1.998 10.183-5.462 3.708 3.444 7.377 5.421 10.181 5.421a4.54 4.54 0 0 0 2.302-.571c2.865-1.65 3.506-6.796 2.029-13.258C45.873 31.447 50 28.307 50 25.005h0zm-13.271-6.798a45.82 45.82 0 0 1-1.375 4.025 55.09 55.09 0 0 0-2.802-4.831c1.448.215 2.844.479 4.179.806h-.002zm-4.667 10.854a54.08 54.08 0 0 1-2.456 3.894 52.94 52.94 0 0 1-9.192.01 53.03 53.03 0 0 1-4.585-7.929 54.3 54.3 0 0 1 4.567-7.958 53.03 53.03 0 0 1 9.189-.012c.846 1.212 1.673 2.508 2.467 3.875a52.24 52.24 0 0 1 2.121 4.054 57.54 57.54 0 0 1-2.11 4.067zm3.292-1.325c.55 1.364 1.021 2.731 1.406 4.056a45.05 45.05 0 0 1-4.198.815c1.011-1.576 1.943-3.202 2.792-4.871zM25.021 38.611a41.7 41.7 0 0 1-2.833-3.263c.917.042 1.854.073 2.802.073.958 0 1.906-.021 2.833-.073a39.89 39.89 0 0 1-2.802 3.263zm-7.583-6.004c-1.405-.204-2.799-.472-4.179-.804.377-1.315.846-2.671 1.375-4.025a50.82 50.82 0 0 0 1.338 2.446c.479.814.967 1.61 1.467 2.383h0zm7.531-21.208a41.7 41.7 0 0 1 2.833 3.263c-.917-.042-1.854-.073-2.802-.073-.958 0-1.906.021-2.833.073a39.89 39.89 0 0 1 2.802-3.263zm-7.542 6.004a56.3 56.3 0 0 0-2.792 4.86 43.73 43.73 0 0 1-1.406-4.056 48.55 48.55 0 0 1 4.198-.804h0zM8.204 30.161c-3.608-1.537-5.942-3.556-5.942-5.156s2.333-3.629 5.942-5.156c.875-.377 1.833-.715 2.823-1.029a49.47 49.47 0 0 0 2.292 6.206 48.28 48.28 0 0 0-2.26 6.175 30.96 30.96 0 0 1-2.854-1.04zm5.483 14.562c-1.385-.792-1.988-3.821-1.519-7.712.113-.958.296-1.969.521-2.998 1.996.49 4.177.867 6.471 1.113 1.298 1.791 2.715 3.493 4.24 5.096-3.323 3.087-6.442 4.779-8.562 4.779a2.43 2.43 0 0 1-1.15-.275v-.002zm24.175-7.764c.479 3.894-.112 6.921-1.49 7.725-.304.183-.702.264-1.171.264-2.111 0-5.24-1.681-8.562-4.75a47.93 47.93 0 0 0 4.21-5.083 47.57 47.57 0 0 0 6.481-1.121 28.92 28.92 0 0 1 .531 2.965h0zm3.923-6.798a30.68 30.68 0 0 1-2.823 1.029 48.92 48.92 0 0 0-2.292-6.206c.938-2.119 1.69-4.187 2.26-6.175a32.01 32.01 0 0 1 2.865 1.04c3.608 1.538 5.942 3.556 5.942 5.156-.01 1.6-2.344 3.629-5.952 5.156h0zm-16.795-.497a4.66 4.66 0 0 0 4.658-4.658 4.66 4.66 0 0 0-4.658-4.658 4.66 4.66 0 0 0-4.658 4.658 4.66 4.66 0 0 0 4.658 4.658z"/></g><defs><clipPath id="A"><path fill="#fff" d="M0 0h50v50H0z"/></clipPath></defs></svg>