<?xml version="1.0" encoding="UTF-8" standalone="no"?>
<!-- Created with Inkscape (http://www.inkscape.org/) -->

<svg
   width="50"
   height="50"
   viewBox="0 0 13.229166 13.229167"
   version="1.1"
   id="svg5"
   sodipodi:docname="React Icon.svg"
   inkscape:version="1.1.2 (b8e25be833, 2022-02-05)"
   xmlns:inkscape="http://www.inkscape.org/namespaces/inkscape"
   xmlns:sodipodi="http://sodipodi.sourceforge.net/DTD/sodipodi-0.dtd"
   xmlns="http://www.w3.org/2000/svg"
   xmlns:svg="http://www.w3.org/2000/svg">
  <sodipodi:namedview
     id="namedview7"
     pagecolor="#505050"
     bordercolor="#ffffff"
     borderopacity="1"
     inkscape:pageshadow="0"
     inkscape:pageopacity="0"
     inkscape:pagecheckerboard="1"
     inkscape:document-units="px"
     showgrid="false"
     units="px"
     width="50px"
     inkscape:zoom="8.1437115"
     inkscape:cx="30.207357"
     inkscape:cy="25.1114"
     inkscape:window-width="1920"
     inkscape:window-height="1001"
     inkscape:window-x="-9"
     inkscape:window-y="-9"
     inkscape:window-maximized="1"
     inkscape:current-layer="layer1" />
  <defs
     id="defs2">
    <clipPath
       id="clip0_82_23">
      <rect
         width="26"
         height="30"
         fill="white"
         id="rect830" />
    </clipPath>
  </defs>
  <g
     inkscape:label="Layer 1"
     inkscape:groupmode="layer"
     id="layer1">
    <g
       style="fill:none;stroke-width:1.34749"
       id="g4869"
       transform="matrix(0.19635214,0,0,0.19635214,-0.06136006,0.78005795)">
      <path
         d="m 67.6872,29.7216 c 0,-4.4636 -5.5893,-8.6941 -14.1599,-11.3161 C 55.5064,9.67202 54.6278,2.7212 50.7537,0.495023 49.815,-0.0307228 48.7526,-0.29536 47.6769,-0.271364 V 2.78857 c 0.6317,0 1.1398,0.12633 1.5665,0.35933 1.8668,1.07238 2.6781,5.14856 2.0465,10.3954 -0.1516,1.2913 -0.3986,2.65 -0.7018,4.0368 -2.8701,-0.6916 -5.783,-1.1914 -8.7194,-1.4963 -1.7494,-2.4134 -3.6579,-4.7074 -5.7128,-6.86656 4.4776,-4.16039 8.6801,-6.4399 11.5379,-6.4399 V -0.2854 c -3.7786,0 -8.7222,2.69218 -13.722,7.36069 -4.997,-4.63763 -9.9434,-7.304545 -13.7192,-7.304545 V 2.83068 c 2.8438,0 7.0603,2.26828 11.5379,6.4006 -1.923,2.02122 -3.8459,4.31202 -5.6735,6.85252 -2.9425,0.3015 -5.8606,0.8061 -8.7334,1.5104 C 17.08,16.2798 16.8411,14.9513 16.6677,13.6134 16.022,8.36383 16.8193,4.28766 18.6749,3.20405 19.0848,2.95701 19.621,2.84472 20.2526,2.84472 v -3.059938 c -1.151,0 -2.1981,0.2470402 -3.102,0.766387 C 13.2906,2.77734 12.4259,9.71133 14.4163,18.4195 5.87372,21.0584 0.3125,25.2721 0.3125,29.7216 c 0,4.4636 5.5893,8.6942 14.1599,11.3134 -1.9791,8.7362 -1.1004,15.687 2.7736,17.9104 0.8927,0.5222 1.937,0.7692 3.088,0.7692 3.7786,0 8.7222,-2.6922 13.722,-7.3607 4.997,4.6404 9.9406,7.3046 13.7192,7.3046 1.0839,0.0228 2.1544,-0.2426 3.102,-0.7692 3.86,-2.2234 4.7247,-9.1574 2.7343,-17.8656 8.5145,-2.622 14.0757,-6.8525 14.0757,-11.3021 z M 49.8048,20.5615 c -0.5334,1.8355 -1.1516,3.6454 -1.8528,5.4236 -1.1477,-2.2324 -2.4079,-4.4053 -3.7757,-6.5101 1.951,0.2892 3.8319,0.6457 5.6314,1.0865 z m -6.2883,14.6259 c -1.0282,1.7951 -2.1325,3.5457 -3.3097,5.2468 -4.1204,0.3632 -8.2646,0.3679 -12.3858,0.014 -2.3638,-3.3766 -4.4312,-6.9514 -6.1788,-10.6845 1.745,-3.7418 3.8035,-7.3292 6.1536,-10.7238 4.1193,-0.3639 8.2625,-0.3695 12.3829,-0.0168 1.1397,1.6338 2.2542,3.3799 3.3238,5.2215 1.0443,1.7967 1.9932,3.6214 2.8578,5.463 -0.8742,1.8639 -1.8229,3.692 -2.8438,5.4798 z M 47.952,33.402 c 0.7412,1.8387 1.3756,3.6803 1.895,5.4657 -1.7967,0.4408 -3.6944,0.8113 -5.6567,1.0977 1.3622,-2.124 2.6177,-4.3145 3.7617,-6.5634 z M 34.0279,48.056 c -1.2773,-1.3195 -2.5546,-2.7877 -3.8179,-4.3962 1.2352,0.0561 2.4985,0.0982 3.7758,0.0982 1.2914,0 2.5687,-0.0281 3.8179,-0.0982 -1.2352,1.6085 -2.5125,3.0767 -3.7758,4.3962 z M 23.8094,39.9654 c -1.8928,-0.2743 -3.7719,-0.6359 -5.6314,-1.0836 0.5081,-1.7714 1.1398,-3.599 1.8528,-5.4237 0.5643,1.0948 1.1566,2.1953 1.8023,3.2958 0.6457,1.0976 1.3026,2.17 1.9763,3.2115 z M 33.9578,11.3873 c 1.2773,1.3194 2.5546,2.7876 3.8179,4.3962 -1.2353,-0.0562 -2.4985,-0.0983 -3.7758,-0.0983 -1.2914,0 -2.5687,0.0281 -3.8179,0.0983 1.2352,-1.6086 2.5125,-3.0768 3.7758,-4.3962 z m -10.1624,8.0906 c -1.3619,2.1193 -2.6174,4.3051 -3.7618,6.5493 -0.7208,-1.7897 -1.3532,-3.6138 -1.8949,-5.4657 1.7967,-0.4267 3.6944,-0.7973 5.6567,-1.0836 z M 11.3676,36.6696 c -4.86224,-2.0717 -8.00639,-4.792 -8.00639,-6.948 0,-2.156 3.14415,-4.8903 8.00639,-6.948 1.179,-0.5081 2.4704,-0.9629 3.8038,-1.3868 0.7833,2.6894 1.8135,5.491 3.088,8.3629 -1.2033,2.7011 -2.2209,5.4812 -3.0459,8.3208 -1.3041,-0.4038 -2.5876,-0.8713 -3.8459,-1.4009 z m 7.3887,19.6229 C 16.8895,55.2258 16.0782,51.144 16.7098,45.9 c 0.1516,-1.2914 0.3987,-2.6529 0.7018,-4.0397 2.6894,0.6597 5.6286,1.1678 8.7195,1.4991 1.7494,2.4134 3.6579,4.7073 5.7128,6.8666 -4.4776,4.1604 -8.6801,6.4399 -11.538,6.4399 -0.5391,0.0059 -1.0714,-0.1214 -1.5496,-0.3706 z M 51.332,45.8298 c 0.6457,5.2468 -0.1516,9.3258 -2.0072,10.4094 -0.4099,0.247 -0.946,0.3565 -1.5777,0.3565 -2.8438,0 -7.0603,-2.2655 -11.5379,-6.4006 2.0463,-2.1502 3.942,-4.4389 5.6735,-6.8498 2.9425,-0.3014 5.8606,-0.806 8.7335,-1.5103 0.3172,1.3868 0.5614,2.7175 0.7158,3.9948 z m 5.2861,-9.1602 c -1.179,0.5082 -2.4704,0.9629 -3.8039,1.3868 -0.8394,-2.8541 -1.8711,-5.6481 -3.088,-8.3629 1.2633,-2.855 2.2767,-5.6426 3.0459,-8.3207 1.3083,0.4051 2.5965,0.8726 3.8601,1.4008 4.8622,2.0718 8.0063,4.792 8.0063,6.948 -0.014,2.156 -3.1582,4.8903 -8.0204,6.948 z"
         fill="#00d254"
         id="path4857"
         style="stroke-width:1.81574" />
      <path
         d="m 33.9858,35.9987 c 1.6648,0 3.2614,-0.6613 4.4386,-1.8385 1.1772,-1.1772 1.8385,-2.7738 1.8385,-4.4386 0,-1.6648 -0.6613,-3.2614 -1.8385,-4.4385 -1.1772,-1.1772 -2.7738,-1.8386 -4.4386,-1.8386 -1.6647,0 -3.2613,0.6614 -4.4385,1.8386 -1.1772,1.1771 -1.8385,2.7737 -1.8385,4.4385 0,1.6648 0.6613,3.2614 1.8385,4.4386 1.1772,1.1772 2.7738,1.8385 4.4385,1.8385 z"
         fill="#00d254"
         id="path4859"
         style="stroke-width:1.81574" />
    </g>
  </g>
</svg>
