<?xml version="1.0" encoding="UTF-8" standalone="no"?>
<!-- Created with Inkscape (http://www.inkscape.org/) -->

<svg
   width="50"
   height="50"
   viewBox="0 0 13.229166 13.229167"
   version="1.1"
   id="svg5"
   sodipodi:docname="Contact.svg"
   inkscape:version="1.1.2 (b8e25be833, 2022-02-05)"
   xmlns:inkscape="http://www.inkscape.org/namespaces/inkscape"
   xmlns:sodipodi="http://sodipodi.sourceforge.net/DTD/sodipodi-0.dtd"
   xmlns="http://www.w3.org/2000/svg"
   xmlns:svg="http://www.w3.org/2000/svg">
  <sodipodi:namedview
     id="namedview7"
     pagecolor="#505050"
     bordercolor="#ffffff"
     borderopacity="1"
     inkscape:pageshadow="0"
     inkscape:pageopacity="0"
     inkscape:pagecheckerboard="1"
     inkscape:document-units="px"
     showgrid="false"
     units="px"
     width="50px"
     inkscape:zoom="8.1437115"
     inkscape:cx="39.048535"
     inkscape:cy="32.724637"
     inkscape:window-width="1920"
     inkscape:window-height="1001"
     inkscape:window-x="-9"
     inkscape:window-y="-9"
     inkscape:window-maximized="1"
     inkscape:current-layer="layer1" />
  <defs
     id="defs2">
    <clipPath
       id="clip0_82_23">
      <rect
         width="26"
         height="30"
         fill="white"
         id="rect830" />
    </clipPath>
  </defs>
  <g
     inkscape:label="Layer 1"
     inkscape:groupmode="layer"
     id="layer1">
    <g
       style="fill:none;stroke-width:0.520094"
       id="g945"
       transform="matrix(0.50862605,0,0,0.50881408,-1.5209125,-1.5264418)">
      <path
         d="m 25.9998,29 h -0.17 C 6.17976,27.87 3.38976,11.29 2.99976,6.23 2.96834,5.83658 3.01485,5.44082 3.13664,5.06541 3.25842,4.69 3.45309,4.3423 3.70948,4.04225 3.96587,3.7422 4.27895,3.49569 4.63077,3.31684 4.9826,3.13799 5.36626,3.03032 5.75976,3 h 5.51004 c 0.4006,-3.9e-4 0.792,0.11951 1.1236,0.34416 0.3317,0.22465 0.5882,0.54371 0.7364,0.91584 l 1.52,3.74 c 0.1464,0.36355 0.1827,0.76208 0.1044,1.14609 C 14.676,9.5301 14.4867,9.88267 14.2098,10.16 l -2.13,2.15 c 0.3327,1.8907 1.2382,3.6337 2.5939,4.993 1.3557,1.3592 3.0962,2.2693 4.9861,2.607 l 2.17,-2.15 c 0.2815,-0.2738 0.6374,-0.4587 1.0233,-0.5317 0.3859,-0.0729 0.7847,-0.0306 1.1467,0.1217 l 3.77,1.51 c 0.3665,0.1529 0.6792,0.4114 0.8983,0.7427 0.219,0.3312 0.3345,0.7202 0.3317,1.1173 V 26 c 0,0.7956 -0.3161,1.5587 -0.8787,2.1213 C 27.5585,28.6839 26.7955,29 25.9998,29 Z M 5.99976,5 C 5.73455,5 5.48019,5.10536 5.29266,5.29289 5.10512,5.48043 4.99976,5.73478 4.99976,6 V 6.08 C 5.45976,12 8.40976,26 25.9398,27 c 0.1314,0.0081 0.2631,-0.0098 0.3875,-0.0527 0.1244,-0.0428 0.2392,-0.1099 0.3377,-0.1972 0.0985,-0.0873 0.1787,-0.1933 0.2362,-0.3117 0.0574,-0.1184 0.091,-0.247 0.0986,-0.3784 v -5.34 l -3.77,-1.51 -2.87,2.85 -0.48,-0.06 c -8.7,-1.09 -9.88004,-9.79 -9.88004,-9.88 l -0.06,-0.48 2.84004,-2.87 -1.5,-3.77 z"
         fill="#00d254"
         id="path936"
         style="stroke-width:0.520192" />
    </g>
  </g>
</svg>
