<?xml version="1.0" encoding="UTF-8" standalone="no"?>
<!-- Created with Inkscape (http://www.inkscape.org/) -->

<svg
   width="50"
   height="50"
   viewBox="0 0 13.229166 13.229167"
   version="1.1"
   id="svg5"
   sodipodi:docname="Skills.svg"
   inkscape:version="1.1.2 (b8e25be833, 2022-02-05)"
   xmlns:inkscape="http://www.inkscape.org/namespaces/inkscape"
   xmlns:sodipodi="http://sodipodi.sourceforge.net/DTD/sodipodi-0.dtd"
   xmlns="http://www.w3.org/2000/svg"
   xmlns:svg="http://www.w3.org/2000/svg">
  <sodipodi:namedview
     id="namedview7"
     pagecolor="#505050"
     bordercolor="#ffffff"
     borderopacity="1"
     inkscape:pageshadow="0"
     inkscape:pageopacity="0"
     inkscape:pagecheckerboard="1"
     inkscape:document-units="px"
     showgrid="false"
     units="px"
     width="50px"
     inkscape:zoom="4.0718557"
     inkscape:cx="22.102944"
     inkscape:cy="54.888978"
     inkscape:window-width="1920"
     inkscape:window-height="1001"
     inkscape:window-x="-9"
     inkscape:window-y="-9"
     inkscape:window-maximized="1"
     inkscape:current-layer="layer1" />
  <defs
     id="defs2">
    <clipPath
       id="clip0_82_23">
      <rect
         width="26"
         height="30"
         fill="white"
         id="rect830" />
    </clipPath>
  </defs>
  <g
     inkscape:label="Layer 1"
     inkscape:groupmode="layer"
     id="layer1">
    <g
       style="fill:none"
       id="g4979"
       transform="scale(0.26458333)">
      <path
         d="M 33.2591,2.31101 C 33.3233,2.08684 33.3458,1.85126 33.3252,1.61776 33.3048,1.38426 33.2412,1.1574 33.1389,0.950133 33.0364,0.742862 32.8968,0.559241 32.7283,0.409754 32.5596,0.260268 32.365,0.147846 32.1558,0.0789018 31.9466,0.00995812 31.7268,-0.0141523 31.5089,0.00794354 31.291,0.0300394 31.0793,0.0979102 30.8858,0.207679 30.6925,0.31745 30.521,0.46697 30.3816,0.647706 30.2421,0.828439 30.1371,1.03685 30.0727,1.26103 L 16.741,47.689 c -0.1299,0.4527 -0.0867,0.9423 0.1202,1.3609 0.2069,0.4185 0.5605,0.7321 0.983,0.8712 0.4225,0.1392 0.8794,0.0929 1.27,-0.1287 0.3908,-0.2217 0.6833,-0.6007 0.813,-1.0534 z M 14.5146,11.2359 c 0.1552,0.1659 0.2783,0.3629 0.3623,0.5799 0.084,0.2169 0.1273,0.4495 0.1273,0.6844 0,0.2348 -0.0433,0.4674 -0.1273,0.6844 -0.084,0.2169 -0.2071,0.4139 -0.3623,0.5798 L 4.02585,25.0001 14.5146,36.2355 c 0.3129,0.3354 0.4887,0.7902 0.4887,1.2644 0,0.4741 -0.1758,0.9289 -0.4887,1.2641 -0.3129,0.3355 -0.7373,0.5238 -1.1799,0.5238 -0.4425,0 -0.8669,-0.1883 -1.1798,-0.5238 L 0.489588,26.2643 C 0.334396,26.0984 0.211267,25.9013 0.127256,25.6845 0.0432438,25.4674 0,25.2349 0,25.0001 c 0,-0.235 0.0432438,-0.4675 0.127256,-0.6846 0.084011,-0.2169 0.20714,-0.414 0.362332,-0.5798 L 12.1549,11.2359 c 0.1548,-0.1663 0.3387,-0.2982 0.5411,-0.3883 0.2025,-0.09 0.4195,-0.1363 0.6387,-0.1363 0.2192,0 0.4363,0.0463 0.6387,0.1363 0.2025,0.0901 0.3864,0.222 0.5412,0.3883 z m 20.9708,0 c -0.1552,0.1659 -0.2783,0.3629 -0.3623,0.5799 -0.084,0.2169 -0.1273,0.4495 -0.1273,0.6844 0,0.2348 0.0433,0.4674 0.1273,0.6844 0.084,0.2169 0.2071,0.4139 0.3623,0.5798 L 45.9742,25.0001 35.4854,36.2355 c -0.1548,0.166 -0.2777,0.3631 -0.3617,0.5802 -0.0837,0.2169 -0.1268,0.4494 -0.1268,0.6842 0,0.2348 0.0431,0.4673 0.1268,0.6841 0.084,0.2169 0.2069,0.414 0.3617,0.58 0.155,0.1661 0.339,0.2977 0.5415,0.3877 0.2022,0.0898 0.4193,0.1361 0.6385,0.1361 0.219,0 0.436,-0.0463 0.6385,-0.1361 0.2023,-0.09 0.3863,-0.2216 0.5413,-0.3877 L 49.5104,26.2643 c 0.1552,-0.1659 0.2784,-0.363 0.3625,-0.5798 C 49.9569,25.4674 50,25.2349 50,25.0001 c 0,-0.235 -0.0431,-0.4675 -0.1271,-0.6846 -0.0841,-0.2169 -0.2073,-0.414 -0.3625,-0.5798 L 37.8452,11.2359 c -0.1548,-0.1663 -0.3388,-0.2982 -0.5413,-0.3883 -0.2023,-0.09 -0.4193,-0.1363 -0.6385,-0.1363 -0.2192,0 -0.4363,0.0463 -0.6388,0.1363 -0.2025,0.0901 -0.3864,0.222 -0.5412,0.3883 z"
         fill="#00d254"
         id="path4970" />
    </g>
  </g>
</svg>
