<svg xmlns="http://www.w3.org/2000/svg" width="50" height="50" fill="none" xmlns:v="https://vecta.io/nano"><path d="M33.259 2.311a1.91 1.91 0 0 0 .066-.693 1.88 1.88 0 0 0-.186-.668 1.77 1.77 0 0 0-.411-.54c-.169-.149-.363-.262-.572-.331a1.56 1.56 0 0 0-.647-.071 1.58 1.58 0 0 0-.623.2c-.193.11-.365.259-.504.44a1.83 1.83 0 0 0-.309.613L16.741 47.689a1.9 1.9 0 0 0 .12 1.361 1.7 1.7 0 0 0 .983.871c.422.139.879.093 1.27-.129s.683-.601.813-1.053L33.259 2.311zm-18.744 8.925a1.8 1.8 0 0 1 .362.58 1.9 1.9 0 0 1 0 1.368 1.8 1.8 0 0 1-.362.58L4.026 25l10.489 11.235c.313.335.489.79.489 1.264s-.176.929-.489 1.264-.737.524-1.18.524a1.61 1.61 0 0 1-1.18-.524L.49 26.264a1.8 1.8 0 0 1-.362-.58 1.9 1.9 0 0 1 0-1.369 1.8 1.8 0 0 1 .362-.58l11.665-12.5c.155-.166.339-.298.541-.388a1.57 1.57 0 0 1 1.277 0c.203.09.386.222.541.388zm20.971 0a1.8 1.8 0 0 0-.362.58 1.9 1.9 0 0 0 0 1.368 1.8 1.8 0 0 0 .362.58L45.974 25 35.485 36.236c-.155.166-.278.363-.362.58s-.127.449-.127.684a1.9 1.9 0 0 0 .127.684c.084.217.207.414.362.58a1.67 1.67 0 0 0 .541.388 1.57 1.57 0 0 0 .639.136c.219 0 .436-.046.639-.136a1.67 1.67 0 0 0 .541-.388l11.665-12.5a1.8 1.8 0 0 0 .363-.58 1.9 1.9 0 0 0 0-1.369 1.8 1.8 0 0 0-.363-.58l-11.665-12.5c-.155-.166-.339-.298-.541-.388a1.57 1.57 0 0 0-1.277 0c-.203.09-.386.222-.541.388h0z" fill="#1096e1"/></svg>