<svg xmlns="http://www.w3.org/2000/svg" width="108" height="108" fill="none" xmlns:v="https://vecta.io/nano"><g clip-path="url(#A)"><path d="M108 0H0v108h108V0z" fill="#fff"/><path d="M9.959 17.027c0 .538.109.984.328 1.34.219.346.51.633.875.861.374.228.802.415 1.285.561l1.531.41 2.092.574c.693.21 1.308.501 1.846.875.538.365.971.843 1.299 1.436.337.592.506 1.354.506 2.283 0 .948-.178 1.768-.533 2.461a4.6 4.6 0 0 1-1.463 1.695c-.62.438-1.363.761-2.229.971-.866.219-1.814.328-2.844.328-.474 0-.962-.032-1.463-.096-.492-.055-.966-.132-1.422-.232-.447-.1-.852-.214-1.217-.342s-.652-.255-.861-.383v-2.037a8.46 8.46 0 0 0 1.107.451l1.271.355 1.326.219c.447.055.866.082 1.258.082.638 0 1.244-.055 1.818-.164.583-.109 1.094-.292 1.531-.547a2.84 2.84 0 0 0 1.039-1.039c.255-.447.383-1.003.383-1.668 0-.547-.114-.998-.342-1.354-.219-.355-.515-.647-.889-.875-.374-.237-.807-.428-1.299-.574l-1.531-.41-2.092-.547c-.675-.21-1.281-.497-1.818-.861a4.24 4.24 0 0 1-1.285-1.408c-.319-.574-.479-1.308-.479-2.201 0-.93.164-1.727.492-2.393a4.64 4.64 0 0 1 1.34-1.668c.565-.437 1.226-.761 1.982-.971s1.563-.314 2.42-.314c.975 0 1.882.096 2.721.287.848.182 1.622.424 2.324.725v2.065c-.756-.319-1.54-.579-2.352-.779a11.08 11.08 0 0 0-2.584-.314c-.693 0-1.294.077-1.805.232-.51.146-.934.36-1.271.643-.337.274-.588.611-.752 1.012-.164.392-.246.83-.246 1.313zm27.891 4.32c0-1.23-.159-2.315-.478-3.254s-.761-1.723-1.326-2.351c-.556-.629-1.217-1.103-1.982-1.422-.757-.328-1.572-.492-2.447-.492a6.18 6.18 0 0 0-2.461.492c-.757.319-1.417.793-1.982 1.422-.556.629-.994 1.413-1.312 2.351s-.479 2.023-.479 3.254.16 2.315.479 3.254c.328.93.77 1.709 1.326 2.338.565.629 1.226 1.103 1.983 1.422.766.319 1.59.479 2.475.479.875 0 1.686-.16 2.434-.479a5.4 5.4 0 0 0 1.969-1.422c.565-.629 1.007-1.408 1.326-2.338.319-.939.478-2.023.478-3.254zm2.352 0c0 1.386-.201 2.657-.602 3.814s-.975 2.156-1.723 2.994-1.65 1.495-2.707 1.969c-1.048.465-2.224.697-3.527.697-1.349 0-2.557-.232-3.623-.697-1.066-.474-1.969-1.13-2.707-1.969s-1.303-1.837-1.695-2.994-.588-2.429-.588-3.814c0-1.395.2-2.671.601-3.828.41-1.167.984-2.169 1.723-3.008.747-.839 1.65-1.49 2.707-1.955 1.057-.474 2.242-.711 3.555-.711 1.34 0 2.538.237 3.596.711a7.6 7.6 0 0 1 2.707 1.955c.738.839 1.303 1.841 1.695 3.008.392 1.158.588 2.434.588 3.828zm5.66-4.32c0 .538.109.984.328 1.34.219.346.511.633.875.861.374.228.802.415 1.285.561l1.531.41 2.092.574c.693.21 1.308.501 1.846.875.538.365.971.843 1.299 1.436.337.592.506 1.354.506 2.283 0 .948-.178 1.768-.533 2.461a4.6 4.6 0 0 1-1.463 1.695c-.62.438-1.363.761-2.229.971-.866.219-1.814.328-2.844.328-.474 0-.962-.032-1.463-.096-.492-.055-.966-.132-1.422-.232-.447-.1-.852-.214-1.217-.342s-.652-.255-.861-.383v-2.037a8.46 8.46 0 0 0 1.107.451l1.272.355 1.326.219c.447.055.866.082 1.258.082.638 0 1.244-.055 1.818-.164.583-.109 1.094-.292 1.531-.547a2.84 2.84 0 0 0 1.039-1.039c.255-.447.383-1.003.383-1.668 0-.547-.114-.998-.342-1.354-.219-.355-.515-.647-.889-.875-.374-.237-.807-.428-1.299-.574l-1.531-.41-2.092-.547c-.675-.21-1.281-.497-1.818-.861a4.24 4.24 0 0 1-1.285-1.408c-.319-.574-.478-1.308-.478-2.201 0-.93.164-1.727.492-2.393a4.64 4.64 0 0 1 1.34-1.668c.565-.437 1.226-.761 1.982-.971s1.563-.314 2.42-.314c.975 0 1.882.096 2.721.287.848.182 1.622.424 2.324.725v2.065a15.8 15.8 0 0 0-2.352-.779 11.08 11.08 0 0 0-2.584-.314c-.693 0-1.294.077-1.805.232-.51.146-.934.36-1.271.643-.337.274-.588.611-.752 1.012-.164.392-.246.83-.246 1.313zm2.939-5.824l-2.953-3.377h2.105l1.887 2.092h.055l1.9-2.092h2.105l-2.953 3.377h-2.147z" fill="#5378e4"/><g fill="#f60"><path d="M29.244 38.413l-1.375-.27-3.978 20.287 1.375.27 3.978-20.287z"/><path d="M51.546 62.427l-27.386-5.37-.269 1.374 27.386 5.371.269-1.374z"/><path d="M51.459 62.407l-1.396.103.365 4.94 1.396-.103-.365-4.94z"/><path d="M57.029 67.538l-6.367-1.249-.27 1.374 6.367 1.249.269-1.374z"/><path d="M59.582 64.733l-1.173-.764-2.728 4.188 1.173.764 2.728-4.188z"/><path d="M86.142 69.211l-27.739-5.44-.269 1.374 27.739 5.44.27-1.374z"/><path d="M97.2 15.802l-1.375-.27L85.06 70.426l1.375.27L97.2 15.802z"/></g><g fill="#ffce0b"><path d="M31.125 41.908l-.773-.152-2.79 14.226.773.152 2.79-14.226z"/><path d="M27.717 55.235c4.991.461 10.098-.332 15.216.115h0c2.362.203 4.76.695 6.889 1.845h0c2.136 1.163 3.838 3.035 4.914 5.215l-.699.353c-1.01-2.044-2.604-3.803-4.586-4.874h0c-1.989-1.085-4.286-1.547-6.588-1.754h0c-4.992-.443-10.1.351-15.219-.115l.073-.785z"/><path d="M58.787 43.094l-.84-.163-3.936 19.857.84.163 3.936-19.857z"/><path d="M54.022 62.582c1.315-2.201 3.699-3.55 6.184-3.829h0c2.754-.306 5.503.288 8.099 1.086h0c5.389 1.647 10.341 4.381 15.43 6.645l-.297.688c-5.129-2.28-10.053-5.004-15.346-6.614h0c-2.56-.775-5.21-1.36-7.802-1.058-2.278.261-4.477 1.491-5.629 3.47l-.639-.388z"/><path d="M94.689 15.094l-.875-.163-10.754 52.151.875.163 10.754-52.151z"/></g><path d="M65.296 13.576c2.25-1.277 4.54-2.53 7.02-3.132 1.828-.458 3.772-.424 5.579-.102 6.642 1.19 12.574 3.844 19.067 5.661l.519-.868c-6.377-1.787-12.349-4.45-19.188-5.688h0c-1.959-.357-4.112-.383-6.208.126h0c-2.735.684-5.156 1.989-7.414 3.29l.624.713z" fill="#f60"/><path d="M15.391 79.555h.688v4.75h6.063v-4.75h.688V90h-.687v-5.07h-6.062V90h-.687V79.555zM24.539 90l4.273-10.445h.672L33.773 90h-.758l-1.5-3.711h-4.734L25.289 90h-.75zm6.719-4.336l-.398-1.008-1.68-4.289h-.031l-1.055 2.648-1.078 2.648h4.242zm4.805-6.109l4.703 6.57 1.969 2.82h.047c-.073-.656-.109-1.734-.109-3.234v-6.156h.688V90h-.594l-4.719-6.641-1.953-2.766h-.031c.063.656.094 1.878.094 3.664V90h-.687V79.555h.594zm12.125 0c.922 0 1.638.052 2.148.156 1.286.328 2.242.927 2.867 1.797.625.865.938 1.935.938 3.211 0 1.333-.341 2.458-1.023 3.375-.677.917-1.604 1.5-2.781 1.75-.521.104-1.161.156-1.922.156h-2.273V79.555h2.047zm5.219 5.18c0-1.151-.26-2.099-.781-2.844-.516-.75-1.263-1.258-2.242-1.523-.302-.078-.641-.128-1.016-.148l-1.469-.039h-1.07v9.195h1.125l1.344-.023c.333-.021.646-.065.938-.133.99-.219 1.766-.727 2.328-1.523s.844-1.784.844-2.961zm3.203-5.18h.688v9.82h5.297V90h-5.984V79.555zm7.133 5.227c0-1.036.201-1.969.602-2.797.406-.828.969-1.474 1.687-1.937.719-.469 1.534-.703 2.445-.703.953 0 1.786.234 2.5.703.719.463 1.271 1.107 1.656 1.93.391.823.586 1.758.586 2.805 0 1.031-.201 1.958-.602 2.781s-.961 1.469-1.68 1.938c-.713.463-1.521.695-2.422.695-.964 0-1.807-.232-2.531-.695-.719-.464-1.273-1.104-1.664-1.922-.385-.823-.578-1.755-.578-2.797zm8.734 0c0-1-.177-1.862-.531-2.586-.354-.729-.836-1.281-1.445-1.656a3.72 3.72 0 0 0-2.023-.57c-.734 0-1.406.19-2.016.57-.609.375-1.094.927-1.453 1.656-.354.724-.531 1.586-.531 2.586 0 1.01.18 1.878.539 2.602.359.719.844 1.263 1.453 1.633.614.37 1.297.555 2.047.555a3.73 3.73 0 0 0 2-.555c.599-.37 1.075-.914 1.43-1.633.354-.724.531-1.591.531-2.602zm2.813-5.227l2.023 5.578 1.453 4.164h.031l1.164-3.414 2.273-6.328h.703L79.148 90h-.766l-3.797-10.445h.703zM82.852 90l4.273-10.445h.672L92.086 90h-.758l-1.5-3.711h-4.734L83.602 90h-.75zm6.719-4.336l-.398-1.008-1.68-4.289h-.031l-1.055 2.648-1.078 2.648h4.242zm-2.398-6.672l1.234-1.937h.828l-1.344 1.938h-.719z" fill="#2852cc"/></g><defs><clipPath id="A"><rect width="108" height="108" rx="21" fill="#fff"/></clipPath></defs></svg>