<?xml version="1.0" encoding="UTF-8" standalone="no"?>
<!-- Created with Inkscape (http://www.inkscape.org/) -->

<svg
   width="50"
   height="50"
   viewBox="0 0 13.229166 13.229167"
   version="1.1"
   id="svg5"
   sodipodi:docname="StyledComponents Icon.svg"
   inkscape:version="1.1.2 (b8e25be833, 2022-02-05)"
   xmlns:inkscape="http://www.inkscape.org/namespaces/inkscape"
   xmlns:sodipodi="http://sodipodi.sourceforge.net/DTD/sodipodi-0.dtd"
   xmlns="http://www.w3.org/2000/svg"
   xmlns:svg="http://www.w3.org/2000/svg">
  <sodipodi:namedview
     id="namedview7"
     pagecolor="#505050"
     bordercolor="#ffffff"
     borderopacity="1"
     inkscape:pageshadow="0"
     inkscape:pageopacity="0"
     inkscape:pagecheckerboard="1"
     inkscape:document-units="px"
     showgrid="false"
     units="px"
     width="50px"
     inkscape:zoom="4.0718557"
     inkscape:cx="22.102944"
     inkscape:cy="54.888978"
     inkscape:window-width="1920"
     inkscape:window-height="1001"
     inkscape:window-x="-9"
     inkscape:window-y="-9"
     inkscape:window-maximized="1"
     inkscape:current-layer="layer1" />
  <defs
     id="defs2">
    <clipPath
       id="clip0_82_23">
      <rect
         width="26"
         height="30"
         fill="white"
         id="rect830" />
    </clipPath>
  </defs>
  <g
     inkscape:label="Layer 1"
     inkscape:groupmode="layer"
     id="layer1">
    <g
       style="fill:none;stroke-width:1.2"
       id="g5089"
       transform="scale(0.22048611)">
      <path
         d="m 15.0459,28.8098 c -0.2343,2.9511 2.3582,5.1247 4.1275,5.1247 1.7718,-0.0827 8.6721,-5.8976 8.6721,-5.8976 3.2454,-4.1045 3.2595,-5.9296 3.2595,-7.3641 -0.2707,-6.3332 -11.809,3.3129 -16.0591,8.137 z m 28.5428,-2.4513 c 1.5662,-3.3148 -0.5409,-6.9964 -5.1244,-3.7626 -3.6422,2.3149 -8.3574,7.0771 -10.6141,8.9414 -1.0467,2.1141 1.6066,7.9161 5.8113,4.8527 4.9699,-3.6108 8.5992,-7.0061 9.9272,-10.0315 z M 47.8543,6.30633 48.8637,0 H 60 v 11.5118 l -4.0813,0.0487 -4.9142,16.6447 c 0.3058,5.8743 -2.6731,5.97 -3.0536,8.6654 -0.9564,6.7746 -8.5324,12.3178 -11.4289,12.3178 -1.9319,-0.056 -3.3441,-2.2702 -3.8185,-4.1995 5.4469,-6.0246 12.7716,-10.7591 12.7716,-10.7591 0.4574,-3.1684 -0.5479,-4.1772 2.8328,-6.8771 L 51.5338,10.3912 C 48.7787,8.57191 47.4932,8.60016 47.8543,6.30633 Z M 26.1176,34.3962 c 2.8244,5.6911 6.9055,5.8394 13.2328,-1.4062 0.1503,0.6699 0.315,1.3717 0.0129,3.0569 C 26.4919,47.5593 14.3688,58.7637 10.6787,60 H 0 V 57.1359 C 1.73672,54.7275 15.99,42.9714 26.1176,34.3962 Z M 45.1404,45.4153 C 44.5609,50.3414 40.0697,54.652 34.0683,60 h -19.02 L 31.0828,46.4936 c 2.768,6.2994 7.6845,5.3868 14.0577,-1.0783 z M 22.6477,34.234 0,53.5376 V 41.0138 L 13.3277,30.1641 c 0.713,4.0384 5.0807,7.5944 9.32,4.0701 z"
         fill="#00d254"
         id="path5080"
         style="stroke-width:1.44" />
    </g>
  </g>
</svg>
