<svg xmlns="http://www.w3.org/2000/svg" width="50" height="50" fill="none" xmlns:v="https://vecta.io/nano"><path d="M12.538 24.008c-.195 2.459 1.965 4.271 3.44 4.271 1.476-.069 7.227-4.915 7.227-4.915 2.704-3.42 2.716-4.941 2.716-6.137-.226-5.278-9.841 2.761-13.383 6.781zm23.786-2.043c1.305-2.762-.451-5.83-4.27-3.136-3.035 1.929-6.965 5.898-8.845 7.451-.872 1.762 1.339 6.597 4.843 4.044 4.142-3.009 7.166-5.838 8.273-8.36zm3.555-16.71L40.72 0H50v9.593l-3.401.041-4.095 13.871c.255 4.895-2.228 4.975-2.545 7.221-.797 5.646-7.11 10.265-9.524 10.265-1.61-.047-2.787-1.892-3.182-3.5 4.539-5.02 10.643-8.966 10.643-8.966.381-2.64-.457-3.481 2.361-5.731l2.688-14.135c-2.296-1.516-3.367-1.493-3.066-3.404zM21.765 28.664c2.354 4.743 5.755 4.866 11.027-1.172.125.558.262 1.143.011 2.547C22.077 39.633 11.974 48.97 8.899 50H0v-2.387c1.447-2.007 13.325-11.804 21.765-18.95zm15.852 9.183c-.483 4.105-4.226 7.697-9.227 12.154H12.54l13.362-11.255c2.307 5.249 6.404 4.489 11.715-.899h0zm-18.744-9.318L0 44.615V34.178l11.106-9.041c.594 3.365 4.234 6.329 7.767 3.392h0z" fill="#1096e1"/></svg>