<svg xmlns="http://www.w3.org/2000/svg" width="200" height="44" viewBox="0 0 52.917 11.642" xmlns:v="https://vecta.io/nano"><text xml:space="preserve" x="7.202" y="3.814" transform="scale(.99954571 1.0004545)" font-size="8.168" font-family="Isonorm" letter-spacing="1.883" word-spacing="-.28"><tspan x="7.202" y="3.814">syncreon</tspan></text><path d="M5.528 4.485C2.418 5.511 1.547 6.821 2.386 7.562c4.2 4.438 24.786 3.839 32.748 3.479 1.505-.245 11.651-.312 15.686-3.695.579-1.687-2.17-2.042-3.735-2.871 1.809.337 4.909.771 5.81 2.301.293 1.483-2.556 2.713-5.982 3.395C43.685 11.423 2.686 13.874 0 7.026.305 5.597 3.654 5.083 5.528 4.485z" fill="#a2a3a6"/><ellipse cx="15.954" cy="8.8" rx="2.172" ry="2.174" fill="#ed2027"/></svg>