<svg xmlns="http://www.w3.org/2000/svg" width="50" height="50" fill="none" xmlns:v="https://vecta.io/nano"><path d="M0 25v25h50V0H0v25zm40.291-1.994c1.198.282 2.288.91 3.133 1.806.456.487 1.139 1.383 1.197 1.603.016.066-2.156 1.522-3.475 2.336-.048.033-.244-.17-.456-.489-.642-.936-1.319-1.342-2.352-1.415-1.514-.099-2.491.692-2.483 2.019a1.97 1.97 0 0 0 .211.936c.334.692.961 1.106 2.897 1.945 3.581 1.537 5.111 2.555 6.062 3.995 1.066 1.611 1.302 4.183.586 6.103-.797 2.075-2.767 3.491-5.534 3.955-.855.155-2.889.13-3.809-.041-2.009-.358-3.914-1.352-5.086-2.653-.464-.505-1.359-1.831-1.302-1.92.025-.033.228-.162.456-.294l1.856-1.075 1.441-.837.301.447c.423.642 1.342 1.522 1.897 1.814 1.595.847 3.784.725 4.867-.244.439-.366.684-.928.652-1.497 0-.578-.073-.838-.375-1.27-.391-.553-1.18-1.025-3.434-2.002-2.58-1.115-3.695-1.798-4.703-2.897a6.62 6.62 0 0 1-1.375-2.498c-.187-.708-.236-2.483-.089-3.191.53-2.498 2.417-4.231 5.127-4.744.88-.17 2.93-.106 3.792.106l-.002.002zm-11.734 2.092l.016 2.042h-6.511v18.498h-4.606V27.141h-6.502v-2.002l.056-2.067c.025-.033 3.98-.049 8.781-.041l8.74.025.025 2.042z" fill="#1096e1"/></svg>