<svg xmlns="http://www.w3.org/2000/svg" xmlns:xlink="http://www.w3.org/1999/xlink" width="100" height="100" viewBox="0 0 26.458 26.458" xmlns:v="https://vecta.io/nano"><path d="M0 0h26.458v26.458H0z" fill="#002d71" fill-rule="evenodd" paint-order="stroke fill markers"/><g stroke="#fff"><g fill="none"><g stroke-width=".185"><path d="M8.752 5.329c-.169.389 1.18 1.894 1.437 3.317.33 1.825.124 3.32.632 3.421 1.035.135 1.686-.893 2.921-1.135 1.15-.225 3.753-.238 3.854-.384.29-.36-1.37-1.906-1.476-2.421-.45-1.123.574-3.388.24-4.308-.288-.551-1.598.456-4.209 1.114-2.189.218-3.249-.147-3.398.397z"/><path d="M16.29 3.75c-1.191 2.376-4 4.898-4.205 5.26-.271.374-.965 1.612-1.265 3.057"/></g><g stroke-width=".106"><path d="M8.833 5.768c1.882 2.854 3.952 4.989 8.763 4.78"/><path d="M8.963 5.094c1.581-.134 3.575-.423 5.836 1.607.398.357 1.04.978 1.317 1.447.541.917 1.63 2.051 1.48 2.401"/></g></g><path d="M9.702 16.094l6.347-.079" fill="none" stroke-width=".265"/></g><g fill="#fff"><path d="M3.186 19.806H2.1v-.171l.769-1.13h-.745v-.211h1.042v.169l-.769 1.131h.79zm-.668-1.651q-.028-.048-.075-.104-.047-.058-.097-.113-.05-.055-.089-.095v-.027h.164q.055.037.116.087.062.049.116.105.055-.057.117-.106.063-.05.119-.086h.165v.027q-.039.039-.091.095-.051.055-.098.113-.047.057-.074.104zm.932 1.651v-1.511h.248v1.511zm.646 0v-1.511h.248v1.3h.642v.211zm1.151 0v-1.511h.248v1.511z"/><use xlink:href="#B"/><path d="M8.423 19.395q0 .134-.066.232-.065.097-.188.149-.122.052-.291.052-.083 0-.158-.009-.075-.009-.143-.027-.066-.019-.121-.044v-.234q.092.04.206.073.114.032.232.032.096 0 .159-.025.064-.026.095-.072.031-.048.031-.111 0-.067-.036-.114-.036-.047-.11-.085-.072-.039-.182-.084-.074-.03-.143-.068-.067-.038-.12-.09-.053-.052-.084-.122-.03-.071-.03-.167 0-.128.061-.219.062-.091.174-.14.113-.049.263-.049.119 0 .223.025.105.025.207.07l-.079.199q-.093-.038-.181-.061-.087-.023-.178-.023-.079 0-.133.024-.055.024-.084.067-.028.042-.028.101 0 .066.032.112.033.044.101.082.069.037.178.083.125.052.212.109.088.057.134.136.047.079.047.197zm1.444.411h-.285l-.47-.686-.149.121v.565h-.248v-1.511h.248v.722q.045-.056.092-.112.047-.056.093-.112l.426-.499h.28l-.564.661z"/><path d="M11.001 19.806l-.148-.42h-.578l-.148.42h-.261l.562-1.517h.275l.561 1.517zm-.212-.633l-.144-.413q-.008-.027-.024-.075-.015-.05-.031-.1-.015-.052-.026-.087-.01.042-.026.095-.014.052-.029.097-.013.045-.021.07l-.145.413zm.128-1.357v.021q-.025.03-.067.072-.042.041-.092.088-.05.045-.098.088-.049.041-.088.07h-.162v-.027q.034-.039.075-.094.042-.055.083-.113.041-.058.069-.105zm2.674.479v.978q0 .158-.067.283-.066.125-.201.198-.134.072-.338.072-.29 0-.442-.152-.151-.153-.151-.406v-.974h.248v.952q0 .189.089.279.089.09.266.09.122 0 .198-.042.078-.043.114-.126.037-.084.037-.202v-.951z"/><use xlink:href="#B" x="8.083"/><path d="M15.634 19.806v-1.511h.248v1.511zm1.767-1.511l-.528 1.511h-.263l-.528-1.511h.254l.318.947q.014.041.031.1.018.059.032.119.015.06.024.106.008-.047.023-.106.015-.06.032-.119.017-.059.031-.101l.319-.946zm1.054 1.511h-.856v-1.511h.856v.209h-.608v.41h.569v.208h-.569v.474h.608zm.75-1.511q.195 0 .322.048.128.048.19.145.063.097.063.247 0 .112-.041.19-.041.079-.109.13-.067.052-.144.083l.429.669h-.28l-.365-.606h-.243v.606h-.248v-1.511zm-.017.207h-.16v.494h.172q.173 0 .25-.064.079-.064.079-.189 0-.131-.084-.186-.083-.055-.256-.055z"/><path d="M21.086 19.806H20v-.171l.769-1.13h-.745v-.211h1.042v.169l-.769 1.131h.79zm.265 0v-1.511h.248v1.511zm1.17 0h-.249v-1.3h-.442v-.211h1.133v.211h-.441zm1.608 0l-.148-.42h-.578l-.148.42h-.261l.562-1.517h.275l.561 1.517zm-.212-.633l-.144-.413q-.008-.027-.024-.075-.015-.05-.031-.1-.015-.052-.026-.087-.01.042-.026.095-.014.052-.029.097-.013.045-.021.07l-.145.413zm-13.707 1.82l-.528 1.511H9.42l-.528-1.511h.254l.318.947q.014.041.031.1.018.059.032.119.016.06.024.106.008-.047.023-.106.016-.06.032-.119.017-.059.031-.101l.319-.946zm1.963 1.511h-1.086v-.171l.769-1.13h-.745v-.211h1.042v.169l-.769 1.131h.79zm-.668-1.651q-.028-.048-.075-.104-.047-.058-.097-.113-.05-.055-.089-.095v-.027h.164q.055.037.116.087.062.049.116.105.055-.057.117-.106.063-.05.119-.086h.165v.027q-.039.039-.091.095-.051.055-.098.113-.047.057-.074.104zm.933 1.651v-1.511h.248v1.511zm.646 0v-1.511h.248v1.3h.642v.211zm1.15 0v-1.511h.248v1.511z"/><use xlink:href="#B" x="8.987" y="2.698"/><path d="M17.411 22.504h-.87v-1.536h.87v.212h-.618v.417h.579v.211h-.579v.482h.618z"/></g><defs ><path id="B" d="M7.154 19.806h-.305l-.74-1.206h-.009q.004.061.007.129.004.068.006.141.003.072.005.147v.79h-.225v-1.511h.303l.739 1.198h.007q-.002-.053-.005-.121-.003-.068-.006-.141-.002-.073-.003-.142v-.795h.226z"/></defs></svg>