<svg width="24" height="24" viewBox="0 0 24 24" fill="none" xmlns="http://www.w3.org/2000/svg">
<path fill-rule="evenodd" clip-rule="evenodd" d="M18.6667 4.23529C18.6667 3.11202 18.2452 2.03476 17.4951 1.24049C16.7449 0.446217 15.7275 0 14.6667 0H9.33333C8.27247 0 7.25505 0.446217 6.50491 1.24049C5.75476 2.03476 5.33333 3.11202 5.33333 4.23529H4C2.93913 4.23529 1.92172 4.68151 1.17157 5.47578C0.421427 6.27006 0 7.34732 0 8.47059V19.7647C0 20.888 0.421427 21.9652 1.17157 22.7595C1.92172 23.5538 2.93913 24 4 24H20C21.0609 24 22.0783 23.5538 22.8284 22.7595C23.5786 21.9652 24 20.888 24 19.7647V8.47059C24 7.34732 23.5786 6.27006 22.8284 5.47578C22.0783 4.68151 21.0609 4.23529 20 4.23529H18.6667ZM14.6667 2.82353H9.33333C8.97971 2.82353 8.64057 2.97227 8.39052 3.23703C8.14048 3.50178 8 3.86087 8 4.23529H16C16 3.86087 15.8595 3.50178 15.6095 3.23703C15.3594 2.97227 15.0203 2.82353 14.6667 2.82353ZM4 7.05882H20C20.3536 7.05882 20.6928 7.20756 20.9428 7.47232C21.1929 7.73708 21.3333 8.09616 21.3333 8.47059V19.7647C21.3333 20.1391 21.1929 20.4982 20.9428 20.763C20.6928 21.0277 20.3536 21.1765 20 21.1765H4C3.64638 21.1765 3.30724 21.0277 3.05719 20.763C2.80714 20.4982 2.66667 20.1391 2.66667 19.7647V8.47059C2.66667 8.09616 2.80714 7.73708 3.05719 7.47232C3.30724 7.20756 3.64638 7.05882 4 7.05882Z" fill="#00D254"/>
</svg>
