<svg width="25" height="25" viewBox="0 0 25 25" fill="none" xmlns="http://www.w3.org/2000/svg">
<path d="M16.7129 1.60904C16.7437 1.50144 16.7545 1.38836 16.7446 1.27628C16.7348 1.1642 16.7043 1.05531 16.6552 0.95582C16.606 0.85633 16.539 0.768192 16.4581 0.696438C16.3771 0.624685 16.2837 0.570722 16.1833 0.537629C16.0829 0.504536 15.9774 0.492963 15.8728 0.503569C15.7682 0.514175 15.6666 0.546753 15.5737 0.599442C15.4809 0.652132 15.3986 0.723902 15.3317 0.810655C15.2647 0.897407 15.2143 0.997443 15.1834 1.10505L8.78421 23.3905C8.72184 23.6078 8.74259 23.8428 8.84189 24.0437C8.9412 24.2446 9.11093 24.3951 9.31374 24.4619C9.51656 24.5287 9.73584 24.5065 9.92336 24.4001C10.1109 24.2937 10.2513 24.1118 10.3136 23.8945L16.7129 1.60904ZM7.71554 5.89299C7.79003 5.97261 7.84913 6.06719 7.88945 6.17133C7.92978 6.27546 7.95054 6.38709 7.95054 6.49984C7.95054 6.61258 7.92978 6.72421 7.88945 6.82835C7.84913 6.93248 7.79003 7.02706 7.71554 7.10668L2.68094 12.4998L7.71554 17.8928C7.86574 18.0538 7.95012 18.2721 7.95012 18.4997C7.95012 18.7273 7.86574 18.9456 7.71554 19.1065C7.56533 19.2675 7.36162 19.3579 7.1492 19.3579C6.93679 19.3579 6.73307 19.2675 6.58287 19.1065L0.983537 13.1066C0.909045 13.027 0.849943 12.9324 0.809618 12.8283C0.769292 12.7241 0.748535 12.6125 0.748535 12.4998C0.748535 12.387 0.769292 12.2754 0.809618 12.1712C0.849943 12.0671 0.909045 11.9725 0.983537 11.8929L6.58287 5.89299C6.65717 5.81316 6.74544 5.74983 6.84263 5.70662C6.93981 5.66341 7.04399 5.64117 7.1492 5.64117C7.25442 5.64117 7.3586 5.66341 7.45578 5.70662C7.55296 5.74983 7.64123 5.81316 7.71554 5.89299ZM17.7815 5.89299C17.707 5.97261 17.6479 6.06719 17.6076 6.17133C17.5673 6.27546 17.5465 6.38709 17.5465 6.49984C17.5465 6.61258 17.5673 6.72421 17.6076 6.82835C17.6479 6.93248 17.707 7.02706 17.7815 7.10668L22.8161 12.4998L17.7815 17.8928C17.7072 17.9725 17.6482 18.0671 17.6079 18.1713C17.5677 18.2754 17.547 18.387 17.547 18.4997C17.547 18.6124 17.5677 18.724 17.6079 18.8281C17.6482 18.9322 17.7072 19.0268 17.7815 19.1065C17.8559 19.1862 17.9442 19.2494 18.0414 19.2926C18.1385 19.3357 18.2427 19.3579 18.3479 19.3579C18.453 19.3579 18.5572 19.3357 18.6544 19.2926C18.7515 19.2494 18.8398 19.1862 18.9142 19.1065L24.5135 13.1066C24.588 13.027 24.6471 12.9324 24.6875 12.8283C24.7278 12.7241 24.7485 12.6125 24.7485 12.4998C24.7485 12.387 24.7278 12.2754 24.6875 12.1712C24.6471 12.0671 24.588 11.9725 24.5135 11.8929L18.9142 5.89299C18.8399 5.81316 18.7516 5.74983 18.6544 5.70662C18.5573 5.66341 18.4531 5.64117 18.3479 5.64117C18.2427 5.64117 18.1385 5.66341 18.0413 5.70662C17.9441 5.74983 17.8558 5.81316 17.7815 5.89299Z" fill="#00D254"/>
</svg>
