<?xml version="1.0" encoding="UTF-8" standalone="no"?>
<!-- Created with Inkscape (http://www.inkscape.org/) -->

<svg
   width="100"
   height="100"
   viewBox="0 0 26.458333 26.458334"
   version="1.1"
   id="svg5"
   inkscape:version="1.1.2 (b8e25be833, 2022-02-05)"
   sodipodi:docname="UniversityOfZilina.svg"
   xmlns:inkscape="http://www.inkscape.org/namespaces/inkscape"
   xmlns:sodipodi="http://sodipodi.sourceforge.net/DTD/sodipodi-0.dtd"
   xmlns="http://www.w3.org/2000/svg"
   xmlns:svg="http://www.w3.org/2000/svg">
  <sodipodi:namedview
     id="namedview7"
     pagecolor="#505050"
     bordercolor="#ffffff"
     borderopacity="1"
     inkscape:pageshadow="0"
     inkscape:pageopacity="0"
     inkscape:pagecheckerboard="1"
     inkscape:document-units="px"
     showgrid="false"
     units="px"
     width="100px"
     inkscape:zoom="1.9475001"
     inkscape:cx="-85.237479"
     inkscape:cy="89.602049"
     inkscape:window-width="1920"
     inkscape:window-height="1001"
     inkscape:window-x="-9"
     inkscape:window-y="-9"
     inkscape:window-maximized="1"
     inkscape:current-layer="layer1" />
  <defs
     id="defs2" />
  <g
     inkscape:label="Layer 1"
     inkscape:groupmode="layer"
     id="layer1">
    <rect
       style="opacity:1;fill:#002d71;fill-opacity:1;fill-rule:evenodd;stroke:none;stroke-width:0.1;stroke-linecap:butt;stroke-linejoin:round;stroke-miterlimit:4;stroke-dasharray:none;stroke-dashoffset:0;stroke-opacity:1;paint-order:stroke fill markers"
       id="rect12078"
       width="26.458334"
       height="26.458332"
       x="0"
       y="0" />
    <g
       id="g11773"
       transform="matrix(0.74748423,0,0,0.74717994,-63.56229,-78.748269)"
       style="stroke:#ffffff;stroke-width:1.33809;stroke-opacity:1">
      <path
         style="fill:none;stroke:#ffffff;stroke-width:0.247826;stroke-linecap:butt;stroke-linejoin:miter;stroke-miterlimit:4;stroke-dasharray:none;stroke-opacity:1"
         d="m 96.74095,112.52367 c -0.226386,0.52098 1.57848,2.53434 1.922944,4.43894 0.441743,2.44247 0.166332,4.44276 0.845347,4.57811 1.384059,0.1811 2.255859,-1.19475 3.907519,-1.51858 1.53911,-0.30177 5.02087,-0.3189 5.15548,-0.51456 0.38753,-0.48134 -1.83236,-2.55141 -1.97525,-3.23976 -0.60151,-1.50319 0.76784,-4.53428 0.32117,-5.76581 -0.38559,-0.73699 -2.13823,0.6108 -5.63104,1.49054 -2.928336,0.29191 -4.34708,-0.19728 -4.54617,0.53112 z"
         id="path5662"
         sodipodi:nodetypes="cscsccccc" />
      <path
         style="fill:none;stroke:#ffffff;stroke-width:0.247826;stroke-linecap:butt;stroke-linejoin:miter;stroke-miterlimit:4;stroke-dasharray:none;stroke-opacity:1"
         d="m 106.82627,110.41012 c -1.59269,3.17993 -5.35082,6.55459 -5.62508,7.03938 -0.36291,0.49989 -1.290765,2.15769 -1.69195,4.09122"
         id="path10523"
         sodipodi:nodetypes="ccc" />
      <path
         style="fill:none;stroke:#ffffff;stroke-width:0.141615;stroke-linecap:butt;stroke-linejoin:miter;stroke-miterlimit:4;stroke-dasharray:none;stroke-opacity:1"
         d="m 96.849612,113.11068 c 2.517813,3.81973 5.286338,6.6765 11.722628,6.3969"
         id="path11185"
         sodipodi:nodetypes="cc" />
      <path
         style="fill:none;stroke:#ffffff;stroke-width:0.141615;stroke-linecap:butt;stroke-linejoin:miter;stroke-miterlimit:4;stroke-dasharray:none;stroke-opacity:1"
         d="m 97.023471,112.20842 c 2.114975,-0.17987 4.781989,-0.56663 7.806789,2.15007 0.53264,0.47838 1.39147,1.30835 1.7621,1.9364 0.72396,1.2268 2.17999,2.745 1.97988,3.21269"
         id="path11315"
         sodipodi:nodetypes="cssc" />
    </g>
    <path
       style="fill:none;stroke:#ffffff;stroke-width:0.264583px;stroke-linecap:butt;stroke-linejoin:miter;stroke-opacity:1"
       d="m 9.7016402,16.094423 6.3473268,-0.0794"
       id="path17947" />
    <g
       aria-label="ŽILINSKÁ                                                                                                                                                                                                    UNIVERZITA 
V                                                                                                                                                                         ŽILINE"
       id="text1623"
       style="font-size:2.15195px;line-height:1.25;font-family:Bahnschrift;-inkscape-font-specification:Bahnschrift;text-align:center;letter-spacing:0px;word-spacing:-0.545042px;text-anchor:middle;stroke-width:0.264583">
      <path
         d="M 3.1859025,19.806404 H 2.0996622 V 19.635872 L 2.8686087,18.506223 H 2.1234334 v -0.21084 h 1.0417985 v 0.169499 L 2.3962854,19.595564 H 3.1859025 Z M 2.5182419,18.155856 q -0.027905,-0.04754 -0.075448,-0.104386 -0.046509,-0.05788 -0.097152,-0.112655 -0.049609,-0.05478 -0.088884,-0.09509 v -0.02687 h 0.1643313 q 0.054777,0.03721 0.1157554,0.08682 0.062012,0.04858 0.1157554,0.10542 0.054777,-0.05684 0.1167889,-0.106454 0.063045,-0.04961 0.118856,-0.08578 h 0.1653648 v 0.02687 q -0.039274,0.03927 -0.090951,0.09509 -0.050643,0.05478 -0.098185,0.112655 -0.046509,0.05684 -0.074414,0.104386 z"
         style="font-weight:600;font-size:2.11667px;font-family:'Open Sans';-inkscape-font-specification:'Open Sans, Semi-Bold';fill:#ffffff"
         id="path49004" />
      <path
         d="m 3.4504862,19.806404 v -1.511021 h 0.2480472 v 1.511021 z"
         style="font-weight:600;font-size:2.11667px;font-family:'Open Sans';-inkscape-font-specification:'Open Sans, Semi-Bold';fill:#ffffff"
         id="path49006" />
      <path
         d="m 4.0964426,19.806404 v -1.511021 h 0.2480472 v 1.300181 h 0.6418223 v 0.21084 z"
         style="font-weight:600;font-size:2.11667px;font-family:'Open Sans';-inkscape-font-specification:'Open Sans, Semi-Bold';fill:#ffffff"
         id="path49008" />
      <path
         d="M 5.2467618,19.806404 V 18.295383 H 5.494809 v 1.511021 z"
         style="font-weight:600;font-size:2.11667px;font-family:'Open Sans';-inkscape-font-specification:'Open Sans, Semi-Bold';fill:#ffffff"
         id="path49010" />
      <path
         d="M 7.1536249,19.806404 H 6.8487335 l -0.7400076,-1.20613 h -0.0093 q 0.00413,0.06098 0.00723,0.129192 0.00413,0.06821 0.0062,0.14056 0.0031,0.07235 0.00517,0.146761 v 0.789617 H 5.8927181 v -1.511021 h 0.3028243 l 0.7389741,1.197861 h 0.00723 q -0.00207,-0.05271 -0.00517,-0.120923 -0.0031,-0.06821 -0.0062,-0.14056 -0.00207,-0.07338 -0.0031,-0.141593 v -0.794785 h 0.2263431 z"
         style="font-weight:600;font-size:2.11667px;font-family:'Open Sans';-inkscape-font-specification:'Open Sans, Semi-Bold';fill:#ffffff"
         id="path49012" />
      <path
         d="m 8.4227999,19.395059 q 0,0.134359 -0.066146,0.231511 -0.065112,0.09715 -0.1881025,0.148828 -0.1219565,0.05168 -0.2914555,0.05168 -0.082682,0 -0.1581301,-0.0093 -0.075448,-0.0093 -0.1426272,-0.02687 -0.066146,-0.0186 -0.120923,-0.04444 v -0.233577 q 0.091984,0.04031 0.2056725,0.07338 0.1136883,0.03204 0.2315108,0.03204 0.096118,0 0.1591636,-0.02481 0.064079,-0.02584 0.095085,-0.07235 0.031006,-0.04754 0.031006,-0.110588 0,-0.06718 -0.036174,-0.113688 -0.036174,-0.04651 -0.1095542,-0.08475 -0.072347,-0.03927 -0.1819014,-0.08372 -0.074414,-0.02997 -0.1426271,-0.06821 -0.067179,-0.03824 -0.1198895,-0.08992 -0.05271,-0.05168 -0.083716,-0.121956 -0.029972,-0.07131 -0.029972,-0.167432 0,-0.128158 0.060978,-0.219109 0.062012,-0.09095 0.1736331,-0.139526 0.1126548,-0.04858 0.2625167,-0.04858 0.1188559,0 0.2232425,0.0248 0.1054201,0.0248 0.206706,0.07028 l -0.078548,0.199471 q -0.093018,-0.03824 -0.1808677,-0.06098 -0.086817,-0.02274 -0.1777672,-0.02274 -0.078548,0 -0.1333254,0.02377 -0.054777,0.02377 -0.083716,0.06718 -0.027905,0.04237 -0.027905,0.101286 0,0.06615 0.032039,0.111621 0.033073,0.04444 0.101286,0.08165 0.069247,0.03721 0.1777672,0.08268 0.1250571,0.05168 0.2118737,0.108521 0.08785,0.05684 0.1343589,0.136426 0.046509,0.07855 0.046509,0.197404 z"
         style="font-weight:600;font-size:2.11667px;font-family:'Open Sans';-inkscape-font-specification:'Open Sans, Semi-Bold';fill:#ffffff"
         id="path49014" />
      <path
         d="M 9.866642,19.806404 H 9.5813876 L 9.1111314,19.12014 8.962303,19.241063 v 0.565341 H 8.7142558 V 18.295383 H 8.962303 v 0.722438 q 0.045475,-0.05581 0.091984,-0.111622 0.046509,-0.05581 0.093018,-0.111621 l 0.4258145,-0.499195 h 0.2800867 l -0.5643075,0.661459 z"
         style="font-weight:600;font-size:2.11667px;font-family:'Open Sans';-inkscape-font-specification:'Open Sans, Semi-Bold';fill:#ffffff"
         id="path49016" />
      <path
         d="M 11.001458,19.806404 10.853663,19.386791 H 10.27592 l -0.147795,0.419613 H 9.8666419 l 0.5622401,-1.517222 h 0.274919 l 0.561207,1.517222 z m -0.211874,-0.63252 -0.14366,-0.413412 q -0.0083,-0.02687 -0.02377,-0.07545 -0.0155,-0.04961 -0.03101,-0.100253 -0.0155,-0.05168 -0.02584,-0.08682 -0.01033,0.04237 -0.02584,0.09508 -0.01447,0.05168 -0.02894,0.09715 -0.01344,0.04548 -0.02067,0.07028 l -0.144695,0.413412 z m 0.128158,-1.357026 v 0.02067 q -0.02481,0.02997 -0.06718,0.07235 -0.04237,0.04134 -0.09198,0.08785 -0.04961,0.04548 -0.09819,0.08785 -0.04858,0.04134 -0.08785,0.07028 h -0.162264 v -0.02687 q 0.03411,-0.03927 0.07545,-0.09405 0.04237,-0.05478 0.08268,-0.112654 0.04134,-0.05788 0.06925,-0.105421 z"
         style="font-weight:600;font-size:2.11667px;font-family:'Open Sans';-inkscape-font-specification:'Open Sans, Semi-Bold';fill:#ffffff"
         id="path49018" />
      <path
         d="m 13.591006,18.295383 v 0.97772 q 0,0.15813 -0.06718,0.283187 -0.06615,0.125057 -0.200505,0.198438 -0.134359,0.07235 -0.337964,0.07235 -0.290422,0 -0.442351,-0.151929 -0.150896,-0.152963 -0.150896,-0.406178 v -0.973585 h 0.248048 v 0.951881 q 0,0.189136 0.08888,0.279053 0.08888,0.08992 0.265618,0.08992 0.121956,0 0.198437,-0.04237 0.07752,-0.04341 0.113689,-0.126091 0.03721,-0.08372 0.03721,-0.201538 v -0.950848 z"
         style="font-weight:600;font-size:2.11667px;font-family:'Open Sans';-inkscape-font-specification:'Open Sans, Semi-Bold';fill:#ffffff"
         id="path49020" />
      <path
         d="m 15.237419,19.806404 h -0.304891 l -0.740008,-1.20613 h -0.0093 q 0.0041,0.06098 0.0072,0.129192 0.0041,0.06821 0.0062,0.14056 0.0031,0.07235 0.0052,0.146761 v 0.789617 h -0.22531 v -1.511021 h 0.302825 l 0.738974,1.197861 h 0.0072 q -0.0021,-0.05271 -0.0052,-0.120923 -0.0031,-0.06821 -0.0062,-0.14056 -0.0021,-0.07338 -0.0031,-0.141593 v -0.794785 h 0.226343 z"
         style="font-weight:600;font-size:2.11667px;font-family:'Open Sans';-inkscape-font-specification:'Open Sans, Semi-Bold';fill:#ffffff"
         id="path49022" />
      <path
         d="m 15.634294,19.806404 v -1.511021 h 0.248047 v 1.511021 z"
         style="font-weight:600;font-size:2.11667px;font-family:'Open Sans';-inkscape-font-specification:'Open Sans, Semi-Bold';fill:#ffffff"
         id="path49024" />
      <path
         d="m 17.400598,18.295383 -0.528134,1.511021 h -0.262517 l -0.528134,-1.511021 h 0.254249 l 0.318327,0.946714 q 0.01447,0.04134 0.03101,0.100252 0.01757,0.05891 0.03204,0.118856 0.0155,0.05994 0.02377,0.106454 0.0083,-0.04651 0.02274,-0.106454 0.0155,-0.05994 0.03204,-0.118856 0.01654,-0.05891 0.03101,-0.101286 l 0.319361,-0.94568 z"
         style="font-weight:600;font-size:2.11667px;font-family:'Open Sans';-inkscape-font-specification:'Open Sans, Semi-Bold';fill:#ffffff"
         id="path49026" />
      <path
         d="m 18.454799,19.806404 h -0.855763 v -1.511021 h 0.855763 v 0.208773 h -0.607716 v 0.410312 h 0.569475 v 0.207739 h -0.569475 v 0.47439 h 0.607716 z"
         style="font-weight:600;font-size:2.11667px;font-family:'Open Sans';-inkscape-font-specification:'Open Sans, Semi-Bold';fill:#ffffff"
         id="path49028" />
      <path
         d="m 19.205142,18.295383 q 0.195337,0 0.322461,0.04754 0.128158,0.04754 0.19017,0.144695 0.06304,0.09715 0.06304,0.247013 0,0.111622 -0.04134,0.19017 -0.04134,0.07855 -0.108521,0.130225 -0.06718,0.05168 -0.143661,0.08268 l 0.428915,0.668694 h -0.280086 l -0.364836,-0.605649 h -0.24288 v 0.605649 h -0.248047 v -1.511021 z m -0.01654,0.206706 h -0.160197 v 0.494027 h 0.171566 q 0.172599,0 0.250114,-0.06408 0.07855,-0.06408 0.07855,-0.189136 0,-0.131259 -0.08372,-0.186036 -0.08268,-0.05478 -0.256316,-0.05478 z"
         style="font-weight:600;font-size:2.11667px;font-family:'Open Sans';-inkscape-font-specification:'Open Sans, Semi-Bold';fill:#ffffff"
         id="path49030" />
      <path
         d="m 21.086167,19.806404 h -1.08624 v -0.170532 l 0.768946,-1.129649 h -0.745175 v -0.21084 h 1.041799 v 0.169499 l -0.768947,1.130682 h 0.789617 z"
         style="font-weight:600;font-size:2.11667px;font-family:'Open Sans';-inkscape-font-specification:'Open Sans, Semi-Bold';fill:#ffffff"
         id="path49032" />
      <path
         d="m 21.350749,19.806404 v -1.511021 h 0.248048 v 1.511021 z"
         style="font-weight:600;font-size:2.11667px;font-family:'Open Sans';-inkscape-font-specification:'Open Sans, Semi-Bold';fill:#ffffff"
         id="path49034" />
      <path
         d="m 22.520707,19.806404 h -0.249081 v -1.300181 h -0.44235 v -0.21084 h 1.132749 v 0.21084 h -0.441318 z"
         style="font-weight:600;font-size:2.11667px;font-family:'Open Sans';-inkscape-font-specification:'Open Sans, Semi-Bold';fill:#ffffff"
         id="path49036" />
      <path
         d="m 24.128879,19.806404 -0.147795,-0.419613 h -0.577743 l -0.147795,0.419613 h -0.261483 l 0.56224,-1.517222 h 0.274919 l 0.561207,1.517222 z m -0.211874,-0.63252 -0.14366,-0.413412 q -0.0083,-0.02687 -0.02377,-0.07545 -0.0155,-0.04961 -0.03101,-0.100253 -0.0155,-0.05168 -0.02584,-0.08682 -0.01034,0.04237 -0.02584,0.09508 -0.01447,0.05168 -0.02894,0.09715 -0.01344,0.04548 -0.02067,0.07028 l -0.144694,0.413412 z"
         style="font-weight:600;font-size:2.11667px;font-family:'Open Sans';-inkscape-font-specification:'Open Sans, Semi-Bold';fill:#ffffff"
         id="path49038" />
      <path
         d="M 10.21023,20.992852 9.6820962,22.503873 H 9.4195795 L 8.8914455,20.992852 H 9.145694 l 0.3183273,0.946714 q 0.014469,0.04134 0.031006,0.100252 0.01757,0.05891 0.032039,0.118856 0.015503,0.05994 0.023771,0.106454 0.00827,-0.04651 0.022738,-0.106454 0.015503,-0.05995 0.032039,-0.118856 0.016536,-0.05891 0.031006,-0.101286 l 0.3193609,-0.94568 z"
         style="font-size:2.11667px;fill:#ffffff;fill-opacity:1"
         id="path49040" />
      <path
         d="m 12.173155,22.503873 h -1.08624 v -0.170532 l 0.768946,-1.129649 h -0.745175 v -0.21084 h 1.041799 v 0.169499 l -0.768947,1.130682 h 0.789617 z m -0.66766,-1.650548 q -0.02791,-0.04754 -0.07545,-0.104386 -0.04651,-0.05788 -0.09715,-0.112655 -0.04961,-0.05478 -0.08888,-0.09509 v -0.02687 h 0.164331 q 0.05478,0.03721 0.115755,0.08682 0.06201,0.04858 0.115756,0.10542 0.05478,-0.05684 0.116789,-0.106454 0.06304,-0.04961 0.118856,-0.08578 h 0.165364 v 0.02687 q -0.03927,0.03927 -0.09095,0.09509 -0.05064,0.05478 -0.09819,0.112655 -0.04651,0.05684 -0.07441,0.104386 z"
         style="font-size:2.11667px;fill:#ffffff;fill-opacity:1"
         id="path49042" />
      <path
         d="m 12.437739,22.503873 v -1.511021 h 0.248047 v 1.511021 z"
         style="font-size:2.11667px;fill:#ffffff;fill-opacity:1"
         id="path49044" />
      <path
         d="m 13.083695,22.503873 v -1.511021 h 0.248047 v 1.300181 h 0.641823 v 0.21084 z"
         style="font-size:2.11667px;fill:#ffffff;fill-opacity:1"
         id="path49046" />
      <path
         d="m 14.234015,22.503873 v -1.511021 h 0.248047 v 1.511021 z"
         style="font-size:2.11667px;fill:#ffffff;fill-opacity:1"
         id="path49048" />
      <path
         d="m 16.140877,22.503873 h -0.304891 l -0.740008,-1.20613 h -0.0093 q 0.0041,0.06098 0.0072,0.129192 0.0041,0.06821 0.0062,0.14056 0.0031,0.07235 0.0052,0.146761 v 0.789617 h -0.225309 v -1.511021 h 0.302824 l 0.738974,1.197861 h 0.0072 q -0.0021,-0.05271 -0.0052,-0.120923 -0.0031,-0.06821 -0.0062,-0.14056 -0.0021,-0.07338 -0.0031,-0.141593 v -0.794785 h 0.226343 z"
         style="font-size:2.11667px;fill:#ffffff;fill-opacity:1"
         id="path49050" />
      <path
         d="m 17.411087,22.503873 h -0.870026 v -1.536206 h 0.870026 v 0.212253 h -0.617845 v 0.41715 h 0.578967 v 0.211202 h -0.578967 v 0.482298 h 0.617845 z"
         style="font-weight:600;font-family:'Open Sans';-inkscape-font-specification:'Open Sans, Semi-Bold';fill:#ffffff"
         id="path49052" />
    </g>
  </g>
</svg>
